<svg width="1627" height="796" viewBox="0 0 1627 796" fill="none" xmlns="http://www.w3.org/2000/svg">
<g clip-path="url(#clip0_354_606)">
<rect width="1627" height="796" rx="16" fill="#545BFE"/>
<path d="M692.309 707.531C736.446 614.761 815.613 555.834 918.535 544.315C1021.36 532.805 1117.82 576.167 1220.06 578.765C1303.79 580.893 1387.63 552.949 1447.62 483.755C1508.28 413.805 1527.57 316.018 1566.88 231.293C1598.3 163.565 1650.23 99.7022 1717.06 92.9199C1750.45 89.5334 1783.82 100.968 1814.04 117.543C2007.9 223.889 2126.66 523.824 2161.95 752.828C2173.56 828.2 2170.43 908.717 2140.53 977.199C2088.64 1096.05 1974.9 1136.36 1865.91 1138.41C1654.89 1142.37 1443.45 1070.2 1233.59 1122.94C1212.82 1128.16 1191.27 1135.19 1176.11 1152.24C1127.65 1206.73 1205.32 1278.93 1232.89 1318.45C1232.89 1318.46 1232.89 1318.46 1232.89 1318.47C1279.63 1385.48 1269.43 1451.18 1229.54 1519.05C1205.52 1559.92 1176.19 1600.13 1135.67 1616.9C1038.12 1657.28 934.077 1563.28 865.804 1495.1C792.402 1421.8 733.57 1328.41 696.221 1225.52C649.213 1096.03 636.938 950.681 659.925 813.083C666.396 774.356 677.336 738.995 692.305 707.53L692.309 707.531Z" fill="#464CD1"/>
</g>
<defs>
<clipPath id="clip0_354_606">
<rect width="1627" height="796" rx="16" fill="white"/>
</clipPath>
</defs>
</svg>
