<svg width="1440" height="122" viewBox="0 0 1440 122" fill="none" xmlns="http://www.w3.org/2000/svg">
<mask id="mask0_494_347" style="mask-type:alpha" maskUnits="userSpaceOnUse" x="260" y="0" width="1180" height="121">
<rect x="260" width="1180" height="121" fill="#D9D9D9"/>
</mask>
<g mask="url(#mask0_494_347)">
<path d="M1405.04 44.3888C1303.92 -0.118074 1153.03 -5.03089 1019.16 25.3503C933.242 44.8782 856.006 72.9477 769.325 91.6558C734.115 99.2319 689.108 110.556 654.138 112.591C577.628 117.043 512.746 102.106 446.534 83.1979C356.212 57.3095 272.957 17.488 150.936 48.0409C76.2403 66.7151 27.5721 105.259 20.315 143.084C13.0579 180.91 43.4256 217.421 92.9857 245.384C142.546 273.346 210.321 293.406 282.171 308.554C364.972 325.973 462.471 337.261 553.204 321.449C606.013 312.26 651.307 294.732 692.215 276.178C789.123 232.19 867.886 180.952 950.502 131.563C1016.6 92.104 1115.92 134.924 1234.03 131.767C1330.95 129.193 1371.98 110.693 1387.54 140.307C1402.32 168.706 1413.68 198.013 1433.33 225.627C1437.54 231.624 1443.11 246.945 1455.57 250.458C1497.66 262.539 1514.76 225.189 1519.82 208.781C1538.86 147.91 1496.84 84.7538 1405.04 44.3888Z" fill="#41D298"/>
<rect x="1357" y="89" width="83" height="33" fill="#41D298"/>
</g>
<path fill-rule="evenodd" clip-rule="evenodd" d="M1440 113.591V122H0V93.4599C22.0905 64.9338 65.9599 40.2318 124.377 28.3889C230.189 6.89583 305.605 36.2769 380.717 65.5393C395.414 71.2648 410.099 76.9858 424.997 82.3202C522.248 117.031 638.712 128.789 754.881 109.356C801.755 101.484 846.128 90.7478 890.507 80.0098L890.508 80.0097C931.067 70.1961 971.632 60.3812 1014.12 52.7495C1152.75 27.896 1306.9 41.5549 1408 94.571C1419.49 100.592 1430.16 106.95 1440 113.591Z" fill="#1C1F58"/>
</svg>
