<?xml version="1.0" encoding="UTF-8"?>
<svg version="1.1" xmlns="http://www.w3.org/2000/svg" width="206" height="205">
<path d="M0 0 C67.98 0 135.96 0 206 0 C206 67.65 206 135.3 206 205 C138.02 205 70.04 205 0 205 C0 137.35 0 69.7 0 0 Z " fill="#FDFDFD" transform="translate(0,0)"/>
<path d="M0 0 C1.98 0.99 1.98 0.99 4 2 C4 5 4 5 1.875 7.234375 C0.92625 8.06453125 -0.0225 8.8946875 -1 9.75 C-1.74515869 10.40826782 -1.74515869 10.40826782 -2.50537109 11.07983398 C-3.99670148 12.39440167 -5.49827349 13.69732123 -7 15 C-8.22589844 16.07701172 -8.22589844 16.07701172 -9.4765625 17.17578125 C-10.82730733 18.3619808 -12.1810479 19.54478644 -13.5390625 20.72265625 C-14.38046727 21.45832299 -15.20969387 22.20969387 -16 23 C-12.04 23.33 -8.08 23.66 -4 24 C-2.98688682 49.43637736 -2.91178414 74.8602233 -2.9375 100.3125 C-2.93835602 101.1657058 -2.93921204 102.01891159 -2.94009399 102.89797211 C-2.95161547 113.59867113 -2.97263687 124.29933047 -3 135 C-9.93 135 -16.86 135 -24 135 C-24 109.92 -24 84.84 -24 59 C-25.98 59 -27.96 59 -30 59 C-30 84.08 -30 109.16 -30 135 C-37.26 135 -44.52 135 -52 135 C-52 109.92 -52 84.84 -52 59 C-59.46625 59.0825 -66.9325 59.165 -74.625 59.25 C-78.14534912 59.27368652 -78.14534912 59.27368652 -81.73681641 59.29785156 C-83.60842333 59.32723116 -85.48000832 59.35805871 -87.3515625 59.390625 C-88.31408936 59.39175293 -89.27661621 59.39288086 -90.26831055 59.39404297 C-99.12474074 59.58213602 -103.57566677 63.36060209 -109.875 69.3125 C-110.9290608 70.29364245 -111.98374876 71.27411157 -113.0390625 72.25390625 C-113.54598633 72.72586426 -114.05291016 73.19782227 -114.57519531 73.68408203 C-118.32950542 77.15147948 -122.22237459 80.46492909 -126.08984375 83.8046875 C-128.97305108 86.30668864 -131.79955007 88.79955007 -134.5 91.5 C-137.84635543 94.84635543 -141.4151199 97.91326701 -145 101 C-145.99 100.01 -146.98 99.02 -148 98 C-146.73395818 94.20187454 -145.07955162 93.25439707 -141.9375 90.8125 C-137.63250715 87.38074213 -133.7088357 83.8248613 -129.875 79.8828125 C-127.47015789 77.46795021 -124.91480973 75.26796261 -122.33203125 73.046875 C-119.33729998 70.41833365 -116.42022868 67.7107485 -113.5 65 C-109.4621218 61.25438182 -105.39015793 57.56961182 -101.21875 53.97265625 C-99.35780329 52.31811736 -97.5339701 50.63766747 -95.71875 48.93359375 C-95.11796631 48.37019287 -94.51718262 47.80679199 -93.89819336 47.22631836 C-92.71610177 46.11465862 -91.5369818 44.99982615 -90.36157227 43.88110352 C-88.59946183 42.22417861 -86.80555617 40.60942247 -85 39 C-84.33355469 38.37770508 -83.66710937 37.75541016 -82.98046875 37.11425781 C-76.96987066 31.89295758 -71.67509102 30.63707616 -63.875 29.75 C-61.65333593 29.44889237 -59.43197841 29.14551402 -57.2109375 28.83984375 C-56.14456055 28.70046387 -55.07818359 28.56108398 -53.97949219 28.41748047 C-50.10830039 27.87505684 -46.32395228 27.12305378 -42.5 26.3125 C-38.62244765 25.49065125 -34.88918859 24.8489486 -30.9375 24.5625 C-23.27966998 23.46852428 -18.34020606 17.72306797 -12.9375 12.5625 C-12.24333984 11.90701172 -11.54917969 11.25152344 -10.83398438 10.57617188 C-7.16698256 7.1041863 -3.54996907 3.59148918 0 0 Z " fill="#9FAEBA" transform="translate(167,36)"/>
<path d="M0 0 C67.98 0 135.96 0 206 0 C206 67.65 206 135.3 206 205 C138.02 205 70.04 205 0 205 C0 197.41 0 189.82 0 182 C1.06481197 183.59721796 2.11824715 185.20479036 3.078125 186.8671875 C7.08709407 193.73588784 11.54914825 197.95250314 19.1866684 200.38124084 C25.05748377 201.67245755 31.06072089 201.4337784 37.04394531 201.41992188 C38.55126062 201.42727305 40.05857033 201.43586231 41.56587219 201.44558716 C45.63844664 201.46770494 49.71081816 201.47073865 53.7834444 201.46883965 C57.19504434 201.46871946 60.60660204 201.4773034 64.01819015 201.48561716 C72.07481852 201.50481732 80.1313433 201.5077479 88.18798828 201.50097656 C96.47064713 201.49434267 104.75285987 201.51718152 113.03542829 201.55429029 C120.17123626 201.5850889 127.30690151 201.59633623 134.44277453 201.59245348 C138.69372944 201.59039594 142.94433724 201.59570944 147.19522858 201.62034607 C151.19772961 201.64277878 155.19951109 201.64060021 159.20201683 201.62041855 C160.66077178 201.61703712 162.11957674 201.62197213 163.57826424 201.63640213 C175.35433289 201.7447455 185.91867144 200.00284871 195 192 C202.2347372 182.8501853 202.43988329 173.32041106 202.38818359 162.06030273 C202.39225516 160.56458148 202.3976003 159.06886324 202.40411377 157.57315063 C202.41772257 153.5339432 202.41251584 149.49496713 202.40297651 145.45575595 C202.3953478 141.21675951 202.40243428 136.97778206 202.40713501 132.73878479 C202.41258265 125.62310248 202.40542644 118.50751378 202.39111328 111.3918457 C202.37478238 103.17849049 202.38008243 94.96535867 202.3965925 86.75200886 C202.4102282 79.68422555 202.41211704 72.6165093 202.40427649 65.54871708 C202.39961222 61.33435059 202.39894081 57.12008895 202.40888596 52.90572929 C202.417584 48.94359431 202.41148227 44.98174605 202.39420319 41.01964188 C202.39025371 39.57008527 202.3913459 38.12050432 202.39799118 36.67095757 C202.44030981 26.49819185 201.7406946 18.12606234 195.02959824 10.02449703 C187.94660165 2.95930289 179.09748085 1.23730691 169.4420166 1.22015381 C167.9870538 1.23659585 166.53209775 1.25364452 165.07714844 1.27124023 C163.51201668 1.26801398 161.94688848 1.2621864 160.3817749 1.25398254 C156.16684561 1.23955584 151.95288295 1.26224901 147.73807049 1.29284167 C143.31092786 1.31937068 138.88380994 1.31390731 134.456604 1.3127594 C127.02917487 1.31556028 119.60211567 1.34149392 112.17480469 1.38256836 C103.6018012 1.42980505 95.02920158 1.44555974 86.45607734 1.4433617 C77.30172015 1.44133209 68.14751742 1.46216471 58.99320698 1.48970151 C56.36560028 1.49607864 53.73801869 1.4982227 51.11040497 1.49941826 C46.97664492 1.50244246 42.84322081 1.52084442 38.70957184 1.55091667 C37.19713907 1.55964112 35.68466762 1.56337806 34.17221069 1.56163406 C23.13032177 1.55372289 15.16068012 2.3314784 6.765625 10.08203125 C4.22888413 12.83765021 2.64425014 15.6429893 1 19 C0.67 19 0.34 19 0 19 C0 12.73 0 6.46 0 0 Z " fill="#B6BFC8" transform="translate(0,0)"/>
<path d="M0 0 C0 6.93 0 13.86 0 21 C7.59 21 15.18 21 23 21 C23 36.84 23 52.68 23 69 C15.74 69 8.48 69 1 69 C1 57.45 1 45.9 1 34 C-7.58 34 -16.16 34 -25 34 C-25 41.26 -25 48.52 -25 56 C-17.74 56 -10.48 56 -3 56 C-3 60.29 -3 64.58 -3 69 C-10.92 69 -18.84 69 -27 69 C-27 57.45 -27 45.9 -27 34 C-32.445 34.495 -32.445 34.495 -38 35 C-36.33333333 33.33333333 -34.66666667 31.66666667 -33 30 C-32.113125 29.071875 -31.22625 28.14375 -30.3125 27.1875 C-28 25 -28 25 -26 25 C-25.73574219 24.39929688 -25.47148438 23.79859375 -25.19921875 23.1796875 C-23.93664569 20.88484786 -22.82742597 19.77074527 -20.8125 18.125 C-15.69903011 13.81642815 -10.86830916 9.22197444 -6.0168457 4.62353516 C-5.06684692 3.72900635 -5.06684692 3.72900635 -4.09765625 2.81640625 C-3.52539307 2.27443604 -2.95312988 1.73246582 -2.36352539 1.17407227 C-1 0 -1 0 0 0 Z " fill="#AEBEC7" transform="translate(60,102)"/>
<path d="M0 0 C6.6 0 13.2 0 20 0 C20 30.69 20 61.38 20 93 C13.4 93 6.8 93 0 93 C0 62.31 0 31.62 0 0 Z " fill="#4B7997" transform="translate(116,77)"/>
<path d="M0 0 C6.93 0 13.86 0 21 0 C21 22.77 21 45.54 21 69 C14.07 69 7.14 69 0 69 C0 46.23 0 23.46 0 0 Z " fill="#AEBEC7" transform="translate(89,101)"/>
<path d="M0 0 C6.27 0 12.54 0 19 0 C19 24.09 19 48.18 19 73 C12.73 73 6.46 73 0 73 C0 48.91 0 24.82 0 0 Z " fill="#2C3D5C" transform="translate(144,97)"/>
<path d="M0 0 C0 9.57 0 19.14 0 29 C-1.98 29 -3.96 29 -6 29 C-6 23.39 -6 17.78 -6 12 C-13.26 12 -20.52 12 -28 12 C-28 17.61 -28 23.22 -28 29 C-42.85 29 -57.7 29 -73 29 C-69.07795488 24.4242807 -65.37336355 20.29046796 -60.9375 16.3125 C-60.43412109 15.85294922 -59.93074219 15.39339844 -59.41210938 14.91992188 C-57.95480402 13.59835518 -56.47770848 12.29871284 -55 11 C-54.23727783 10.3097876 -53.47455566 9.6195752 -52.6887207 8.90844727 C-49.6417939 6.7457462 -47.7613535 6.33126232 -44.078125 5.9140625 C-39.3244286 5.30478592 -34.63162478 4.60228684 -29.921875 3.7109375 C-28.74109375 3.49179688 -27.5603125 3.27265625 -26.34375 3.046875 C-23.93140346 2.59587108 -21.51994814 2.14007593 -19.109375 1.6796875 C-17.93375 1.463125 -16.758125 1.2465625 -15.546875 1.0234375 C-13.98211426 0.72832275 -13.98211426 0.72832275 -12.38574219 0.42724609 C-8.28720923 -0.08994692 -4.13103631 0 0 0 Z " fill="#F8FAFA" transform="translate(143,65)"/>
<path d="M0 0 C8.25 0 16.5 0 25 0 C25 13.53 25 27.06 25 41 C16.75 41 8.5 41 0 41 C0 27.47 0 13.94 0 0 Z " fill="#FCFDFD" transform="translate(34,53)"/>
<path d="M0 0 C0 6.93 0 13.86 0 21 C0.66 21 1.32 21 2 21 C2.02696365 22.79158489 2.04637917 24.58328473 2.0625 26.375 C2.07410156 27.37273437 2.08570313 28.37046875 2.09765625 29.3984375 C2 32 2 32 1 34 C-7.58 34 -16.16 34 -25 34 C-25 41.26 -25 48.52 -25 56 C-17.74 56 -10.48 56 -3 56 C-3 60.29 -3 64.58 -3 69 C-10.92 69 -18.84 69 -27 69 C-27 57.45 -27 45.9 -27 34 C-32.445 34.495 -32.445 34.495 -38 35 C-36.33333333 33.33333333 -34.66666667 31.66666667 -33 30 C-32.113125 29.071875 -31.22625 28.14375 -30.3125 27.1875 C-28 25 -28 25 -26 25 C-25.73574219 24.39929688 -25.47148438 23.79859375 -25.19921875 23.1796875 C-23.93664569 20.88484786 -22.82742597 19.77074527 -20.8125 18.125 C-15.69903011 13.81642815 -10.86830916 9.22197444 -6.0168457 4.62353516 C-5.06684692 3.72900635 -5.06684692 3.72900635 -4.09765625 2.81640625 C-3.52539307 2.27443604 -2.95312988 1.73246582 -2.36352539 1.17407227 C-1 0 -1 0 0 0 Z " fill="#BECBD3" transform="translate(60,102)"/>
<path d="M0 0 C1.98 0.99 1.98 0.99 4 2 C4 5 4 5 1.875 7.234375 C0.92625 8.06453125 -0.0225 8.8946875 -1 9.75 C-1.50112305 10.1924707 -2.00224609 10.63494141 -2.51855469 11.09082031 C-4.00583318 12.40133599 -5.50279425 13.70083734 -7 15 C-8.12148438 15.99 -8.12148438 15.99 -9.265625 17 C-11.16800823 18.6776923 -13.0793462 20.34325283 -15 22 C-15.46967194 22.46627808 -15.93934387 22.93255615 -16.42324829 23.41296387 C-20.95264807 27.70224466 -24.65668061 29.13603145 -30.7578125 30.046875 C-31.58272186 30.18901428 -32.40763123 30.33115356 -33.25753784 30.4776001 C-35.87691282 30.92361557 -38.50020616 31.33721439 -41.125 31.75 C-42.86233473 32.04085279 -44.5993193 32.33380534 -46.3359375 32.62890625 C-58.73890266 34.71441269 -58.73890266 34.71441269 -64.95288086 35.49926758 C-72.95962544 36.45406223 -72.95962544 36.45406223 -79.3125 41.1875 C-80.52099609 42.40759766 -80.52099609 42.40759766 -81.75390625 43.65234375 C-82.49511719 44.42707031 -83.23632812 45.20179687 -84 46 C-85.23616423 47.09909468 -86.4856471 48.18345284 -87.75 49.25 C-92.21989454 53.13844485 -96.53025023 57.19606611 -100.86181641 61.23681641 C-104.4976385 64.62263301 -108.17426017 67.94332774 -111.9375 71.1875 C-115.21597735 74.06858616 -118.41445751 77.03788137 -121.61376953 80.00634766 C-124.09745381 82.30019619 -126.61356566 84.53387035 -129.21875 86.6875 C-132.00416823 88.931622 -132.00416823 88.931622 -134.375 91.375 C-137.764158 94.764158 -141.36932821 97.87383844 -145 101 C-145.99 100.01 -146.98 99.02 -148 98 C-146.73395818 94.20187454 -145.07955162 93.25439707 -141.9375 90.8125 C-137.63250715 87.38074213 -133.7088357 83.8248613 -129.875 79.8828125 C-127.47015789 77.46795021 -124.91480973 75.26796261 -122.33203125 73.046875 C-119.33729998 70.41833365 -116.42022868 67.7107485 -113.5 65 C-109.4621218 61.25438182 -105.39015793 57.56961182 -101.21875 53.97265625 C-99.35780329 52.31811736 -97.5339701 50.63766747 -95.71875 48.93359375 C-95.11796631 48.37019287 -94.51718262 47.80679199 -93.89819336 47.22631836 C-92.71610177 46.11465862 -91.5369818 44.99982615 -90.36157227 43.88110352 C-88.59946183 42.22417861 -86.80555617 40.60942247 -85 39 C-84.33355469 38.37770508 -83.66710937 37.75541016 -82.98046875 37.11425781 C-76.96987066 31.89295758 -71.67509102 30.63707616 -63.875 29.75 C-61.65333593 29.44889237 -59.43197841 29.14551402 -57.2109375 28.83984375 C-56.14456055 28.70046387 -55.07818359 28.56108398 -53.97949219 28.41748047 C-50.10830039 27.87505684 -46.32395228 27.12305378 -42.5 26.3125 C-38.62244765 25.49065125 -34.88918859 24.8489486 -30.9375 24.5625 C-23.27966998 23.46852428 -18.34020606 17.72306797 -12.9375 12.5625 C-12.24333984 11.90701172 -11.54917969 11.25152344 -10.83398438 10.57617188 C-7.16698256 7.1041863 -3.54996907 3.59148918 0 0 Z " fill="#344158" transform="translate(167,36)"/>
<path d="M0 0 C67.98 0 135.96 0 206 0 C206 8.91 206 17.82 206 27 C205.67 27.33 205.34 27.66 205 28 C204.89126816 29.85992153 204.85311214 31.72398877 204.84178162 33.58705139 C204.8319928 34.80006424 204.82220398 36.01307709 204.81211853 37.2628479 C204.80621358 38.61932334 204.80040319 39.97579919 204.79467773 41.33227539 C204.78510451 42.751127 204.77509477 44.16997573 204.76467896 45.58882141 C204.73756355 49.45225694 204.71659005 53.31570478 204.69667697 57.17918324 C204.67485819 61.21245029 204.64744947 65.24567914 204.62062073 69.27891541 C204.5706381 76.92162698 204.52572002 84.5643597 204.48259836 92.20711273 C204.43327348 100.90590731 204.3783378 109.60466358 204.32291877 118.30342114 C204.20901326 136.20224522 204.10219298 154.10110541 204 172 C203.67 172 203.34 172 203 172 C202.99761165 171.24462196 202.99522329 170.48924393 202.99276257 169.71097565 C202.93357891 151.31525362 202.85800726 132.91966538 202.76428509 114.524086 C202.71935492 105.62804856 202.67993385 96.73205091 202.65356445 87.8359375 C202.63056186 80.08041133 202.59713858 72.32501136 202.55129844 64.56958532 C202.52739667 60.4646503 202.50864797 56.35984002 202.50238609 52.25483704 C202.4963214 48.3871706 202.47627193 44.51982322 202.44572449 40.65227509 C202.43696637 39.23660755 202.43321706 37.82089828 202.43499184 36.40520477 C202.44361767 26.34533477 201.66346757 18.03283467 195.02959824 10.02449703 C187.94660165 2.95930289 179.09748085 1.23730691 169.4420166 1.22015381 C167.9870538 1.23659585 166.53209775 1.25364452 165.07714844 1.27124023 C163.51201668 1.26801398 161.94688848 1.2621864 160.3817749 1.25398254 C156.16684561 1.23955584 151.95288295 1.26224901 147.73807049 1.29284167 C143.31092786 1.31937068 138.88380994 1.31390731 134.456604 1.3127594 C127.02917487 1.31556028 119.60211567 1.34149392 112.17480469 1.38256836 C103.6018012 1.42980505 95.02920158 1.44555974 86.45607734 1.4433617 C77.30172015 1.44133209 68.14751742 1.46216471 58.99320698 1.48970151 C56.36560028 1.49607864 53.73801869 1.4982227 51.11040497 1.49941826 C46.97664492 1.50244246 42.84322081 1.52084442 38.70957184 1.55091667 C37.19713907 1.55964112 35.68466762 1.56337806 34.17221069 1.56163406 C23.13032177 1.55372289 15.16068012 2.3314784 6.765625 10.08203125 C4.22888413 12.83765021 2.64425014 15.6429893 1 19 C0.67 19 0.34 19 0 19 C0 12.73 0 6.46 0 0 Z " fill="#D2D9E0" transform="translate(0,0)"/>
<path d="M0 0 C0.33 0 0.66 0 1 0 C1 6.27 1 12.54 1 19 C9.25 19 17.5 19 26 19 C26 12.73 26 6.46 26 0 C26.33 0 26.66 0 27 0 C27 6.27 27 12.54 27 19 C56.7 19 86.4 19 117 19 C117 19.33 117 19.66 117 20 C87.3 20 57.6 20 27 20 C27.33 32.87 27.66 45.74 28 59 C28.99 59.33 29.98 59.66 31 60 C19.07465008 70.99119751 19.07465008 70.99119751 13.01953125 76.23046875 C9.63557526 79.1955211 6.32398702 82.24111721 3.00390625 85.27734375 C1 87 1 87 0 87 C0 78.75 0 70.5 0 62 C-3.3 62 -6.6 62 -10 62 C-10 61.67 -10 61.34 -10 61 C-6.7 61 -3.4 61 0 61 C0 47.47 0 33.94 0 20 C-2.97 20 -5.94 20 -9 20 C-9 19.67 -9 19.34 -9 19 C-6.03 19 -3.06 19 0 19 C0 12.73 0 6.46 0 0 Z M1 20 C1 33.53 1 47.06 1 61 C9.25 61 17.5 61 26 61 C26 47.47 26 33.94 26 20 C17.75 20 9.5 20 1 20 Z " fill="#F6F8F9" transform="translate(33,33)"/>
<path d="M0 0 C0.33 0 0.66 0 1 0 C1 9.57 1 19.14 1 29 C-6.92 29 -14.84 29 -23 29 C-23 19 -23 19 -20.8828125 16.125 C-19.97273438 15.42375 -19.06265625 14.7225 -18.125 14 C-17.22007813 13.278125 -16.31515625 12.55625 -15.3828125 11.8125 C-14.59648438 11.214375 -13.81015625 10.61625 -13 10 C-12.34 9.34 -11.68 8.68 -11 8 C-10.2575 7.7525 -9.515 7.505 -8.75 7.25 C-4.96389884 5.52904493 -2.86897618 2.99938419 0 0 Z " fill="#FAFCFC" transform="translate(58,105)"/>
<path d="M0 0 C0.33 0 0.66 0 1 0 C1 6.27 1 12.54 1 19 C9.25 19 17.5 19 26 19 C26 12.73 26 6.46 26 0 C26.33 0 26.66 0 27 0 C27 6.27 27 12.54 27 19 C56.7 19 86.4 19 117 19 C117 19.33 117 19.66 117 20 C87.3 20 57.6 20 27 20 C27.33 32.87 27.66 45.74 28 59 C28.99 59.33 29.98 59.66 31 60 C29 62 29 62 26.20263672 62.22705078 C25.04006348 62.21657715 23.87749023 62.20610352 22.6796875 62.1953125 C20.79443359 62.18564453 20.79443359 62.18564453 18.87109375 62.17578125 C16.89302734 62.15064453 16.89302734 62.15064453 14.875 62.125 C13.53516279 62.11496983 12.19531848 62.10584404 10.85546875 62.09765625 C7.57023624 62.07402148 4.28509602 62.0381495 1 62 C1.33 69.92 1.66 77.84 2 86 C1.01 86.495 1.01 86.495 0 87 C0 78.75 0 70.5 0 62 C-3.3 62 -6.6 62 -10 62 C-10 61.67 -10 61.34 -10 61 C-6.7 61 -3.4 61 0 61 C0 47.47 0 33.94 0 20 C-2.97 20 -5.94 20 -9 20 C-9 19.67 -9 19.34 -9 19 C-6.03 19 -3.06 19 0 19 C0 12.73 0 6.46 0 0 Z M1 20 C1 33.53 1 47.06 1 61 C9.25 61 17.5 61 26 61 C26 47.47 26 33.94 26 20 C17.75 20 9.5 20 1 20 Z " fill="#C3C6CA" transform="translate(33,33)"/>
<path d="M0 0 C7.26 0 14.52 0 22 0 C22 3.63 22 7.26 22 11 C14.74 11 7.48 11 0 11 C0 7.37 0 3.74 0 0 Z " fill="#507E9C" transform="translate(34,159)"/>
<path d="M0 0 C8.58 0 17.16 0 26 0 C26 0.33 26 0.66 26 1 C24.85724609 1.185625 24.85724609 1.185625 23.69140625 1.375 C14.77747824 3.1555599 8.80171644 6.51893457 3.55859375 14.078125 C2.31837717 16.14449312 2.31837717 16.14449312 1 19 C0.67 19 0.34 19 0 19 C0 12.73 0 6.46 0 0 Z " fill="#C9D2D9" transform="translate(0,0)"/>
<path d="M0 0 C0.66 0.33 1.32 0.66 2 1 C-1.71317701 7.08961029 -6.26135366 13.1612789 -13 16 C-14.99110401 16.38290462 -16.99100513 16.72604615 -19 17 C-7.19417476 2.39805825 -7.19417476 2.39805825 0 0 Z " fill="#28354D" transform="translate(60,97)"/>
<path d="M0 0 C0.33 0 0.66 0 1 0 C1 6.27 1 12.54 1 19 C9.25 19 17.5 19 26 19 C26 19.33 26 19.66 26 20 C17.75 20 9.5 20 1 20 C1 33.53 1 47.06 1 61 C0.67 61 0.34 61 0 61 C0 47.47 0 33.94 0 20 C-2.97 20 -5.94 20 -9 20 C-9 19.67 -9 19.34 -9 19 C-6.03 19 -3.06 19 0 19 C0 12.73 0 6.46 0 0 Z " fill="#CCCFD2" transform="translate(33,33)"/>
<path d="M0 0 C1.32 0.66 2.64 1.32 4 2 C4 5 4 5 1.59375 7.48046875 C0.56994769 8.39125392 -0.46167034 9.29331192 -1.5 10.1875 C-2.02464844 10.65091797 -2.54929688 11.11433594 -3.08984375 11.59179688 C-4.38666224 12.735355 -5.69249867 13.86867174 -7 15 C-7.66 14.01 -8.32 13.02 -9 12 C-9.66 11.67 -10.32 11.34 -11 11 C-7.37 7.37 -3.74 3.74 0 0 Z " fill="#32445D" transform="translate(167,36)"/>
<path d="M0 0 C0.33 0 0.66 0 1 0 C1 6.93 1 13.86 1 21 C1.66 21 2.32 21 3 21 C3 24.63 3 28.26 3 32 C2.01 32 1.02 32 0 32 C-0.33 22.76 -0.66 13.52 -1 4 C-3.31 6.31 -5.62 8.62 -8 11 C-8.99 10.67 -9.98 10.34 -11 10 C-9.93458984 9.04287109 -9.93458984 9.04287109 -8.84765625 8.06640625 C-7.46900391 6.82697266 -7.46900391 6.82697266 -6.0625 5.5625 C-4.68771484 4.32693359 -4.68771484 4.32693359 -3.28515625 3.06640625 C-1.61665644 1.56046061 -1.61665644 1.56046061 0 0 Z " fill="#D9DDDF" transform="translate(59,102)"/>
<path d="M0 0 C0.33 0 0.66 0 1 0 C1.02505615 0.65895264 1.0501123 1.31790527 1.07592773 1.99682617 C1.72834265 19.51685676 1.72834265 19.51685676 3 37 C2.01 37 1.02 37 0 37 C0 24.79 0 12.58 0 0 Z " fill="#263354" transform="translate(144,133)"/>
<path d="M0 0 C0.66 0.33 1.32 0.66 2 1 C1.00795408 2.33926199 0.00573778 3.67098936 -1 5 C-1.928125 6.3303125 -1.928125 6.3303125 -2.875 7.6875 C-5.27624957 10.30062453 -6.52839314 10.71069943 -10 11 C-9.42151242 7.74777105 -8.49110446 6.10208864 -6.125 3.8125 C-5.61195312 3.30332031 -5.09890625 2.79414062 -4.5703125 2.26953125 C-3 1 -3 1 0 0 Z " fill="#25364E" transform="translate(83,76)"/>
<path d="M0 0 C0 2.64 0 5.28 0 8 C-3.63 8.33 -7.26 8.66 -11 9 C-9.33333333 7.33333333 -7.66666667 5.66666667 -6 4 C-5.278125 3.236875 -4.55625 2.47375 -3.8125 1.6875 C-2 0 -2 0 0 0 Z " fill="#E3E6EA" transform="translate(33,128)"/>
<path d="M0 0 C0.8125 1.6875 0.8125 1.6875 1 4 C-1.125 6.75 -1.125 6.75 -4 9 C-6.8125 9.3125 -6.8125 9.3125 -9 9 C-8.31267043 6.25068173 -7.64439778 4.46581179 -5.30859375 2.77734375 C-3.56883675 1.79675344 -1.7862389 0.89311945 0 0 Z " fill="#273A54" transform="translate(158,47)"/>
<path d="M0 0 C0.33 0.99 0.66 1.98 1 3 C1.99 3.33 2.98 3.66 4 4 C-0.30972626 8.09949571 -2.85310727 9.63118644 -9 10 C-8.06409496 8.8944811 -7.12620142 7.79064547 -6.1875 6.6875 C-5.66542969 6.07261719 -5.14335938 5.45773438 -4.60546875 4.82421875 C-3.12827531 3.14575321 -1.59960869 1.56117966 0 0 Z " fill="#303C52" transform="translate(50,104)"/>
<path d="M0 0 C0.99 0.33 1.98 0.66 3 1 C2.814375 1.556875 2.62875 2.11375 2.4375 2.6875 C1.83461649 5.04649928 1.83461649 5.04649928 2.5625 7.5625 C3 10 3 10 1 13 C0.34 13 -0.32 13 -1 13 C-1.02686553 11.02090602 -1.04633375 9.04171029 -1.0625 7.0625 C-1.07410156 5.96035156 -1.08570313 4.85820312 -1.09765625 3.72265625 C-1 1 -1 1 0 0 Z " fill="#B7C2C8" transform="translate(171,150)"/>
<path d="M0 0 C1.125 1.75 1.125 1.75 2 4 C1.17133982 6.8174446 0.41463847 7.75609502 -2.125 9.25 C-2.74375 9.4975 -3.3625 9.745 -4 10 C-4.66 8.35 -5.32 6.7 -6 5 C-4.02 3.35 -2.04 1.7 0 0 Z " fill="#384561" transform="translate(25,127)"/>
<path d="M0 0 C-1.40844718 3.21524305 -3.10344786 5.32183868 -5.625 7.75 C-6.57246094 8.67039062 -6.57246094 8.67039062 -7.5390625 9.609375 C-8.02117188 10.06828125 -8.50328125 10.5271875 -9 11 C-9.66 10.34 -10.32 9.68 -11 9 C-10.01 8.67 -9.02 8.34 -8 8 C-7.26676204 5.98491642 -7.26676204 5.98491642 -7 4 C-7.99 4 -8.98 4 -10 4 C-7.25346796 1.25346796 -3.91404908 0 0 0 Z " fill="#3F4B60" transform="translate(47,112)"/>
<path d="M0 0 C0.33 0.99 0.66 1.98 1 3 C1.66 3 2.32 3 3 3 C3 6.63 3 10.26 3 14 C2.01 14 1.02 14 0 14 C0 9.38 0 4.76 0 0 Z " fill="#DEE3E5" transform="translate(59,120)"/>
<path d="M0 0 C0.66 0.33 1.32 0.66 2 1 C0.76302083 2.46484375 -0.47395833 3.9296875 -1.7109375 5.39453125 C-2.89201099 6.8655046 -3.95358529 8.43037794 -5 10 C-6.32 9.67 -7.64 9.34 -9 9 C-6.49876949 4.83128248 -4.50584021 2.01577062 0 0 Z " fill="#283952" transform="translate(40,115)"/>
<path d="M0 0 C1.65 0 3.3 0 5 0 C4.55123384 1.64846769 4.09069512 3.29373455 3.625 4.9375 C3.36976562 5.85402344 3.11453125 6.77054688 2.8515625 7.71484375 C2 10 2 10 0 11 C0 7.37 0 3.74 0 0 Z " fill="#4C7994" transform="translate(34,159)"/>
<path d="M0 0 C2.0625 0.4375 2.0625 0.4375 4 1 C0.57611908 4.82669043 -2.00724943 6.72278474 -7 8 C-6.02133662 6.85373678 -5.04205413 5.70800212 -4.0625 4.5625 C-3.51722656 3.92441406 -2.97195312 3.28632812 -2.41015625 2.62890625 C-1.63204305 1.73008851 -0.84063472 0.84063472 0 0 Z " fill="#2B364F" transform="translate(68,88)"/>
<path d="M0 0 C2.64 0 5.28 0 8 0 C8 0.33 8 0.66 8 1 C10.97 1.495 10.97 1.495 14 2 C14 2.33 14 2.66 14 3 C6.25 4.125 6.25 4.125 4 3 C4 2.34 4 1.68 4 1 C2.68 0.67 1.36 0.34 0 0 Z " fill="#3D495F" transform="translate(103,66)"/>
<path d="M0 0 C3.125 -0.1875 3.125 -0.1875 6 0 C6 0.99 6 1.98 6 3 C3.36 3 0.72 3 -2 3 C-1.34 2.01 -0.68 1.02 0 0 Z " fill="#222F49" transform="translate(112,65)"/>
<path d="M0 0 C0.93423645 3.01031744 1.04449911 3.86650268 0 7 C-0.99 6.01 -1.98 5.02 -3 4 C-2.67 3.01 -2.34 2.02 -2 1 C-1.34 0.67 -0.68 0.34 0 0 Z " fill="#434D62" transform="translate(22,130)"/>
<path d="M0 0 C0 0.33 0 0.66 0 1 C-1.60049704 1.39036513 -3.20562371 1.76178619 -4.8125 2.125 C-5.70582031 2.33382812 -6.59914062 2.54265625 -7.51953125 2.7578125 C-10 3 -10 3 -13 1 C-8.59085217 -0.10228696 -4.51617599 -0.07654536 0 0 Z " fill="#525D6E" transform="translate(139,61)"/>
<path d="M0 0 C0.99 0 1.98 0 3 0 C2.625 2.9375 2.625 2.9375 2 6 C1.01 6.495 1.01 6.495 0 7 C0 4.69 0 2.38 0 0 Z " fill="#6F8999" transform="translate(171,156)"/>
<path d="M0 0 C2.31 0.33 4.62 0.66 7 1 C4.64561267 2.42944945 3.51967567 3.08661261 0.75 2.625 C0.1725 2.41875 -0.405 2.2125 -1 2 C-0.67 1.34 -0.34 0.68 0 0 Z " fill="#212F49" transform="translate(125,63)"/>
</svg>
