<svg width="35" height="40" viewBox="0 0 35 40" fill="none" xmlns="http://www.w3.org/2000/svg">
<path d="M13.5988 4.35862C14.1059 4.06581 14.6792 3.90721 15.2647 3.89784H22.3746C22.9684 3.90241 23.5504 4.06382 24.0617 4.36571L24.8982 0.899332C25.1312 -0.921962 21.4635 0.556717 21.2121 0.736286C20.4837 1.137 19.6612 1.33527 18.8303 1.31049C16.2557 1.28094 16.2408 -0.00384604 13.4429 0.0203989C13.3364 0.0208776 13.2314 0.045338 13.1357 0.0919629C13.0399 0.138588 12.956 0.206179 12.8899 0.289717C12.8233 0.374788 12.7766 0.473719 12.7533 0.579222C12.73 0.684726 12.7307 0.794115 12.7553 0.899332L13.5988 4.35862Z" fill="#6F39C5"/>
<path d="M8.54441 21.9785C9.46722 21.0622 10.7104 20.541 12.0108 20.5253H21.6159C22.2037 20.5226 22.786 20.6372 23.3289 20.8624C23.8718 21.0876 24.3643 21.4188 24.7775 21.8367L28.8535 17.7466C29.4115 17.1943 30.1063 16.8004 30.8667 16.6053C29.3806 12.8745 26.8626 9.99811 24.3664 7.55301C24.3961 7.2356 24.3521 6.91562 24.2377 6.61804C24.1234 6.32047 23.9418 6.05335 23.7071 5.83755C23.3447 5.50586 22.8728 5.31914 22.3815 5.31299H15.2929C15.0111 5.31951 14.7337 5.38409 14.478 5.50269C14.2224 5.62129 13.9939 5.79136 13.807 6.00227C13.62 6.21317 13.4786 6.46039 13.3915 6.72844C13.3044 6.99649 13.2736 7.27963 13.301 7.56014C10.526 10.293 7.56019 13.6882 6.36106 18.0159C6.0782 18.9383 5.98143 19.9077 6.07636 20.8679C6.17128 21.828 6.45602 22.7597 6.91403 23.6089L8.54441 21.9785Z" fill="black"/>
<path d="M15.7613 28.0886C15.5759 28.0849 15.3993 28.0086 15.2695 27.8761C15.1396 27.7437 15.0669 27.5656 15.0669 27.3801C15.0669 27.1946 15.1396 27.0166 15.2695 26.8841C15.3993 26.7516 15.5759 26.6754 15.7613 26.6716L18.7086 26.6646C18.8999 26.3599 19.0982 26.0694 19.3108 25.7931C20.3886 24.4153 21.8214 23.3572 23.4554 22.7325C22.9133 22.2907 22.2348 22.0503 21.5354 22.0524H11.9426C10.0664 21.9904 8.86874 23.7662 7.64218 24.9146L6.04102 26.5229L13.5083 33.9973C13.789 34.2692 14.0045 34.601 14.1389 34.9679C15.2937 34.8121 16.5335 34.642 17.7238 34.472C17.0819 32.373 17.1794 30.1173 18.0001 28.0815L15.7613 28.0886Z" fill="black"/>
<path d="M26.5215 22.1072C28.8744 22.0302 31.1728 22.825 32.9757 24.3388C33.8491 23.4709 35.0965 22.428 34.9948 21.0656C34.9854 20.4634 34.8011 19.8769 34.4643 19.3775C34.1274 18.8782 33.6527 18.4876 33.0978 18.2533C32.5429 18.019 31.9318 17.9512 31.339 18.0581C30.7463 18.1649 30.1974 18.4419 29.7592 18.8552L26.5215 22.1072Z" fill="black"/>
<path d="M5.02771 27.5231C4.91285 27.3594 4.76409 27.2224 4.59154 27.1213C4.419 27.0202 4.22671 26.9574 4.02775 26.9373C3.82879 26.9171 3.62782 26.94 3.4385 27.0044C3.24918 27.0689 3.07594 27.1733 2.93057 27.3106L0.401335 29.854C0.274992 29.9761 0.174385 30.1222 0.105456 30.2838C0.0365266 30.4454 0.000672117 30.6191 9.35922e-06 30.7948C-0.000653398 30.9705 0.0338893 31.1445 0.101597 31.3066C0.169306 31.4687 0.268807 31.6156 0.394225 31.7386L8.05287 39.4114C8.17406 39.5394 8.32019 39.6413 8.48224 39.7108C8.64429 39.7802 8.81885 39.8158 8.99516 39.8152C9.17301 39.8164 9.3493 39.7819 9.51358 39.7138C9.67787 39.6457 9.82681 39.5452 9.95159 39.4185L12.4951 36.8679C12.7424 36.6195 12.8813 36.2833 12.8813 35.9328C12.8813 35.5822 12.7424 35.246 12.4951 34.9976C11.0432 33.5471 6.4837 28.9779 5.02771 27.5231Z" fill="black"/>
<path d="M31.9597 25.349C26.3014 20.6604 17.6164 25.6172 18.7892 32.9015C19.0893 34.8228 20.0644 36.5743 21.5394 37.8415C23.0144 39.1088 24.8928 39.8088 26.8374 39.816C34.4986 39.8081 37.8698 30.0894 31.9597 25.349Z" fill="#6F39C5"/>
<g clip-path="url(#clip0_7009_12558)">
<path d="M29.5798 29.6767C29.5468 29.6427 29.5046 29.6258 29.4532 29.6258H28.5114C28.449 29.313 28.3315 29.0414 28.1589 28.8114H29.4421C29.4936 28.8114 29.5358 28.7945 29.5689 28.7606C29.6017 28.7267 29.6183 28.6833 29.6183 28.6305V28.0535C29.6183 28.0007 29.6018 27.9574 29.5689 27.9234C29.5357 27.8896 29.4936 27.8726 29.4421 27.8726H24.8598C24.8084 27.8726 24.7662 27.8896 24.7331 27.9234C24.7002 27.9574 24.6836 28.0007 24.6836 28.0535V28.8057C24.6836 28.8547 24.701 28.8971 24.7359 28.9329C24.7708 28.9687 24.8121 28.9866 24.8598 28.9866H25.6584C26.4331 28.9866 26.9251 29.1996 27.1344 29.6257H24.8598C24.8084 29.6257 24.7661 29.6426 24.7331 29.6766C24.7002 29.7105 24.6836 29.7538 24.6836 29.8067V30.3836C24.6836 30.4363 24.7001 30.4797 24.7331 30.5136C24.7662 30.5475 24.8085 30.5644 24.8598 30.5644H27.2116C27.1308 30.8737 26.9426 31.1093 26.647 31.2714C26.3514 31.4336 25.9614 31.5147 25.4767 31.5147H24.8598C24.8121 31.5147 24.7708 31.5326 24.7359 31.5684C24.701 31.6042 24.6836 31.6467 24.6836 31.6956V32.414C24.6836 32.463 24.7001 32.5045 24.7331 32.5384C25.4381 33.3075 26.3524 34.3839 27.4759 35.7677C27.509 35.813 27.5549 35.8356 27.6136 35.8356H28.6876C28.7647 35.8356 28.818 35.8018 28.8473 35.7338C28.884 35.6659 28.8768 35.6018 28.8253 35.5415C27.7532 34.1916 26.9105 33.1812 26.2973 32.5101C26.9215 32.4347 27.4282 32.2273 27.8175 31.888C28.2066 31.5487 28.4434 31.1075 28.5279 30.5645H29.4532C29.5046 30.5645 29.5468 30.5476 29.5798 30.5137C29.6129 30.4798 29.6294 30.4364 29.6294 30.3837V29.8068C29.6294 29.7539 29.6129 29.7106 29.5798 29.6767Z" fill="white"/>
</g>
<defs>
<clipPath id="clip0_7009_12558">
<rect width="4.97697" height="7.96315" fill="white" transform="translate(24.668 27.8726)"/>
</clipPath>
</defs>
</svg>
