<svg width="35" height="30" viewBox="0 0 35 30" fill="none" xmlns="http://www.w3.org/2000/svg">
<path fill-rule="evenodd" clip-rule="evenodd" d="M30.9775 20.0279C32.042 20.0279 32.9042 20.8876 32.9042 21.9521C32.9042 23.0136 32.042 23.8763 30.9775 23.8763C29.916 23.8763 29.0538 23.0141 29.0538 21.9521C29.0538 20.8876 29.916 20.0279 30.9775 20.0279ZM4.01897 20.0279C5.08348 20.0279 5.94566 20.8876 5.94566 21.9521C5.94566 23.0136 5.08348 23.8763 4.01897 23.8763C2.95748 23.8763 2.0953 23.0141 2.0953 21.9521C2.0953 20.8876 2.95697 20.0279 4.01897 20.0279ZM10.1453 14.6334H24.8547C25.2578 14.6334 25.3474 15.1835 25.1632 15.7155C24.7701 16.8374 23.7635 17.5899 22.7393 17.5899H12.2607C11.2355 17.5899 10.2289 16.8374 9.83578 15.7155C9.64955 15.1835 9.74115 14.6334 10.1453 14.6334ZM30.8864 13.2438C30.9825 13.2382 31.0772 13.2412 31.1713 13.2483C31.8508 13.2991 32.412 13.6318 32.64 14.3813C33.03 15.6602 32.042 17.1495 30.7133 17.1495H28.7569C27.3627 17.1495 27.0059 16.2033 27.2293 15.5323C27.5852 14.4573 29.4253 13.2911 30.8864 13.2438ZM4.11309 13.2438C5.57069 13.2911 7.41332 14.4573 7.77017 15.5323C7.99314 16.2033 7.63629 17.1495 6.24161 17.1495H4.28623C2.95697 17.1495 1.96645 15.6602 2.35954 14.3813C2.58754 13.6313 3.14874 13.2986 3.82721 13.2483C3.91982 13.2412 4.01595 13.2387 4.11309 13.2438ZM17.4982 1.74655C19.7476 1.74906 22.1776 1.83312 24.2331 1.98461C25.0117 2.04249 25.7244 2.49296 26.2041 3.32947L28.7287 8.68524C28.7287 8.68524 22.2848 9.3773 17.4982 9.3773C12.7137 9.3773 6.26778 8.68524 6.26778 8.68524L8.79241 3.32947C9.27207 2.49296 9.98778 2.04249 10.7664 1.98461C12.8219 1.83261 15.2519 1.74856 17.4982 1.74655ZM17.4982 4.2428e-05C14.497 4.2428e-05 13.1677 -0.0125398 10.2344 0.395648C8.87596 0.584391 7.896 1.32124 7.36903 2.30975L4.82075 7.11238H1.53662C0.805304 7.11238 0.366917 7.84118 0.55868 8.54633C0.768059 9.32747 1.00411 9.71301 2.15217 9.97675L3.21367 10.2239C2.79692 10.7841 2.34092 11.4057 1.86881 12.0242C1.00361 13.1597 0 14.9686 0 16.7041V22.3316C0 23.4907 0.309539 24.4657 1.24268 24.8301V28.0704C1.24268 28.7026 1.75103 29.2084 2.3832 29.2084H5.61548C6.24765 29.2084 6.75851 28.7026 6.75851 28.0704V26.181C6.75851 25.4094 6.84508 24.5895 7.15663 23.7822C8.04045 21.4855 9.19053 19.8261 11.2038 19.8261H23.7947C25.808 19.8261 26.956 21.486 27.8429 23.7822C28.1514 24.5895 28.241 25.4094 28.241 26.181V28.0704C28.241 28.7026 28.7493 29.2084 29.3815 29.2084H32.6168C33.248 29.2084 33.7573 28.7026 33.7573 28.0704V24.8301C34.6874 24.4657 35 23.4902 35 22.3316V16.7041C35 14.9686 33.9934 13.1597 33.1302 12.0242C32.6581 11.4057 32.2021 10.7841 31.7853 10.2239L32.8468 9.97675C33.9949 9.71301 34.2309 9.32747 34.4413 8.54633C34.6301 7.84118 34.1947 7.11238 33.4634 7.11238H30.1793L27.6285 2.30975C27.1045 1.32175 26.1235 0.584391 24.7656 0.395648C21.8313 -0.0125398 20.5025 4.2428e-05 17.4982 4.2428e-05Z" fill="white"/>
<path fill-rule="evenodd" clip-rule="evenodd" d="M11.1971 21.481C9.86033 21.481 9.23874 22.477 8.48175 24.4515C8.26332 25.0228 8.31667 26.0455 8.8532 26.3259H26.131C26.666 26.0455 26.7189 25.0228 26.5004 24.4515C25.7455 22.477 25.1244 21.481 23.785 21.481H11.1971Z" fill="#6F39C5"/>
</svg>
