<svg width="30" height="35" viewBox="0 0 30 35" fill="none" xmlns="http://www.w3.org/2000/svg">
<path d="M3.42192 26.9289C3.42054 26.9957 3.43268 27.0621 3.45763 27.1242C3.48257 27.1862 3.51979 27.2425 3.56706 27.2898C3.61432 27.337 3.67066 27.3743 3.73267 27.3992C3.79469 27.4241 3.86111 27.4363 3.92794 27.4349C6.94384 27.4113 22.6508 27.4113 25.6667 27.4349C25.7335 27.4363 25.8 27.4241 25.862 27.3992C25.924 27.3743 25.9803 27.337 26.0276 27.2898C26.0749 27.2425 26.1121 27.1862 26.137 27.1242C26.162 27.0621 26.1741 26.9957 26.1727 26.9289V21C26.1592 12.8867 21.2845 8.01204 14.7906 8.01204C8.29661 8.01204 3.42192 12.8867 3.42192 21V26.9289ZM14.7906 12.5156C15.1261 12.5156 15.4479 12.6489 15.6851 12.8862C15.9224 13.1234 16.0556 13.4452 16.0556 13.7807C16.0556 14.1162 15.9224 14.438 15.6851 14.6752C15.4479 14.9125 15.1261 15.0458 14.7906 15.0458C13.7126 15.0344 12.6709 15.4347 11.8779 16.165C11.0849 16.8953 10.6004 17.9006 10.5231 18.9759C10.4999 19.2944 10.3562 19.5922 10.1211 19.8084C9.88609 20.0247 9.57743 20.1432 9.25805 20.1397H9.15685C8.8239 20.1143 8.51458 19.958 8.29649 19.7052C8.0784 19.4523 7.96929 19.1234 7.99299 18.7903C8.13563 17.0837 8.91288 15.4925 10.1713 14.3308C11.4298 13.1692 13.078 12.5215 14.7906 12.5156ZM13.5255 3.79518V1.26506C13.5255 0.929544 13.6588 0.607772 13.896 0.370527C14.1333 0.133283 14.4551 0 14.7906 0C15.1261 0 15.4479 0.133283 15.6851 0.370527C15.9224 0.607772 16.0556 0.929544 16.0556 1.26506V3.79518C16.0556 4.13069 15.9224 4.45246 15.6851 4.68971C15.4479 4.92695 15.1261 5.06024 14.7906 5.06024C14.4551 5.06024 14.1333 4.92695 13.896 4.68971C13.6588 4.45246 13.5255 4.13069 13.5255 3.79518ZM29.1785 5.53252L26.6484 8.06264C26.4086 8.2861 26.0914 8.40776 25.7637 8.40197C25.4359 8.39619 25.1232 8.26342 24.8914 8.03164C24.6597 7.79986 24.5269 7.48716 24.5211 7.15943C24.5153 6.83169 24.637 6.5145 24.8604 6.27469L27.3906 3.74457C27.5064 3.62028 27.646 3.52059 27.8012 3.45145C27.9564 3.38231 28.1239 3.34513 28.2938 3.34213C28.4636 3.33913 28.6324 3.37038 28.7899 3.43401C28.9474 3.49763 29.0905 3.59233 29.2106 3.71246C29.3308 3.83259 29.4255 3.97568 29.4891 4.1332C29.5527 4.29073 29.584 4.45945 29.581 4.62931C29.578 4.79917 29.5408 4.96669 29.4716 5.12187C29.4025 5.27705 29.3028 5.41671 29.1785 5.53252ZM2.93276 8.06264L0.40264 5.53252C0.278349 5.41671 0.178659 5.27705 0.109516 5.12187C0.0403731 4.96669 0.00319386 4.79917 0.000196879 4.62931C-0.0028001 4.45945 0.0284462 4.29073 0.092072 4.1332C0.155698 3.97568 0.250399 3.83259 0.370527 3.71246C0.490655 3.59233 0.633749 3.49763 0.791271 3.43401C0.948793 3.37038 1.11752 3.33913 1.28738 3.34213C1.45724 3.34513 1.62475 3.38231 1.77993 3.45145C1.93511 3.52059 2.07478 3.62028 2.19059 3.74457L4.72071 6.27469C4.845 6.39051 4.94469 6.53017 5.01383 6.68535C5.08298 6.84053 5.12015 7.00805 5.12315 7.17791C5.12615 7.34777 5.0949 7.51649 5.03128 7.67401C4.96765 7.83153 4.87295 7.97463 4.75282 8.09476C4.63269 8.21488 4.4896 8.30958 4.33208 8.37321C4.17456 8.43684 4.00583 8.46808 3.83597 8.46509C3.66611 8.46209 3.4986 8.42491 3.34342 8.35577C3.18824 8.28662 3.04857 8.18693 2.93276 8.06264Z" fill="black"/>
<path d="M28.2848 35.0002V32.4701C28.2848 31.799 28.0182 31.1555 27.5437 30.681C27.0693 30.2065 26.4257 29.9399 25.7547 29.9399H3.82699C3.15596 29.9399 2.51242 30.2065 2.03793 30.681C1.56344 31.1555 1.29688 31.799 1.29688 32.4701V35.0002H28.2848Z" fill="#6F39C5"/>
</svg>
