<svg width="36" height="32" viewBox="0 0 36 32" fill="none" xmlns="http://www.w3.org/2000/svg">
<path d="M26.9978 32.0003C23.0824 30.7518 17.9705 26.9885 18.5536 22.3836C19.1518 17.6557 24.0343 16.4047 26.9978 19.5786C29.9613 16.4047 34.8438 17.6557 35.442 22.3836C36.0226 26.9885 30.9132 30.7493 26.9978 32.0003Z" fill="#6F39C5"/>
<path d="M16.2927 22.0955C16.7807 18.2371 19.62 15.5424 23.1995 15.5424C24.5405 15.5424 25.8423 15.9252 27.0008 16.6438C28.1593 15.9252 29.461 15.5424 30.8021 15.5424C31.6222 15.5424 32.3979 15.6995 33.1204 15.9644V12.8463C33.1204 11.2366 32.3218 9.71556 30.9909 8.80294L19.317 0.855578C17.6566 -0.285193 15.4638 -0.285193 13.8033 0.855578L2.14211 8.80294C0.79854 9.71556 0 11.2366 0 12.8463V27.0933C0 29.8058 2.19281 31.9986 4.89264 31.9986H21.8635C18.3816 29.6461 15.7908 26.0615 16.2927 22.0955Z" fill="white"/>
</svg>
