<svg width="28" height="28" viewBox="0 0 28 28" fill="none" xmlns="http://www.w3.org/2000/svg">
<circle cx="14" cy="14" r="14" fill="black"/>
<g clip-path="url(#clip0_6967_582)">
<path d="M13.2785 6.07728C10.68 6.37892 8.53331 8.40124 8.1226 10.9548C7.75087 13.2667 8.7448 15.376 10.4295 16.6246C10.9008 16.974 11.1975 17.4996 11.2148 18.0786H16.785C16.8001 17.5031 17.0925 16.9776 17.5616 16.6318C19.0146 15.5593 19.9559 13.8486 19.9559 11.9189C19.9559 8.43405 16.8904 5.65727 13.2785 6.07728Z" fill="white"/>
<path d="M11.2207 19.1504V19.2545C11.2207 20.0175 11.5311 20.7021 12.0363 21.1941C12.5344 21.6933 13.2345 21.9999 13.9997 21.9999C15.5371 21.9999 16.7786 20.7734 16.7786 19.2545V19.1504H11.2207Z" fill="white"/>
</g>
<defs>
<clipPath id="clip0_6967_582">
<rect width="12" height="16" fill="white" transform="translate(8 6)"/>
</clipPath>
</defs>
</svg>
