<svg width="28" height="28" viewBox="0 0 28 28" fill="none" xmlns="http://www.w3.org/2000/svg">
<g clip-path="url(#clip0_6967_797)">
<path d="M27.1846 13.1794H25.7788C25.3747 7.32122 20.6788 2.62538 14.8206 2.2212V0.815426C14.7802 -0.272219 13.2194 -0.271398 13.1794 0.815426V2.2212C7.32122 2.62538 2.62538 7.32122 2.2212 13.1794H0.815426C-0.272219 13.2198 -0.271398 14.7806 0.815426 14.8206H2.2212C2.62532 20.6788 7.32117 25.3746 13.1794 25.7788V27.1846C13.2198 28.2722 14.7806 28.2714 14.8206 27.1846V25.7788C20.6788 25.3747 25.3746 20.6788 25.7788 14.8206H27.1846C28.2722 14.7802 28.2714 13.2194 27.1846 13.1794ZM22.7897 14.8206H24.1333C23.7358 19.7734 19.7734 23.7358 14.8206 24.1333V22.7897C14.7802 21.702 13.2194 21.7029 13.1794 22.7897V24.1333C8.22664 23.7358 4.26421 19.7734 3.8667 14.8206H5.21032C6.29797 14.7802 6.29715 13.2194 5.21032 13.1794H3.8667C4.26421 8.22664 8.22664 4.26421 13.1794 3.8667V5.21032C13.2198 6.29797 14.7806 6.29715 14.8206 5.21032V3.8667C19.7734 4.26421 23.7358 8.22664 24.1333 13.1794H22.7897C21.7021 13.2198 21.7029 14.7806 22.7897 14.8206Z" fill="white"/>
<path d="M18.852 11.7256L16.2639 10.8847L14.6645 8.68325C14.3509 8.23574 13.6501 8.23585 13.3367 8.68325L11.7372 10.8847L9.1491 11.7256C8.89925 11.8068 8.7034 12.0026 8.62221 12.2525C8.54103 12.5023 8.58435 12.7759 8.73874 12.9884L10.3382 15.1899V17.911C10.3382 18.1737 10.464 18.4205 10.6764 18.5749C10.889 18.7293 11.1626 18.7726 11.4124 18.6914L14.0005 17.8505L16.5886 18.6914C16.8384 18.7726 17.112 18.7292 17.3245 18.5749C17.537 18.4205 17.6628 18.1737 17.6628 17.911V15.1899L19.2622 12.9884C19.4166 12.7759 19.4599 12.5023 19.3788 12.2525C19.2977 12.0026 19.1019 11.8068 18.852 11.7256Z" fill="#6F39C5"/>
</g>
<defs>
<clipPath id="clip0_6967_797">
<rect width="28" height="28" fill="white"/>
</clipPath>
</defs>
</svg>
