<svg width="33" height="35" viewBox="0 0 33 35" fill="none" xmlns="http://www.w3.org/2000/svg">
<path d="M4.61153 18.616C5.01096 20.5141 6.68549 21.8729 8.62518 21.8729H9.26291L7.6324 27.0906C8.25228 27.3635 8.89472 27.6043 9.55515 27.8134L11.4115 21.8729H20.6691L22.5256 27.8137C23.186 27.6046 23.8284 27.3638 24.4484 27.0911L22.8178 21.8729H25.0944C26.3238 21.8729 27.3203 20.8764 27.3203 19.647C27.3203 18.4177 26.3238 17.421 25.0944 17.421H9.0635L5.63528 1.75841C5.41058 0.731719 4.50134 0 3.45038 0C2.0298 0 0.969139 1.3071 1.26165 2.69726L4.61153 18.616Z" fill="black"/>
<path d="M13.6515 11.6191V15.3695H15.7023V11.6191H19.8038V15.3695H21.8546V11.6191H24.2472C24.8126 11.6191 25.2726 12.0791 25.2726 12.6445C25.2726 13.2108 25.7317 13.6699 26.298 13.6699C26.8643 13.6699 27.3234 13.2108 27.3234 12.6445C27.3234 10.9483 25.9434 9.56836 24.2472 9.56836H9.44727L9.89611 11.6191H13.6515Z" fill="black"/>
<path d="M28.8535 26.9165C25.5344 29.3473 21.0189 30.8426 16.043 30.8426C11.0664 30.8426 6.5503 29.3469 3.23105 26.9154C1.90542 25.9444 0.0349035 26.8781 0.000450399 28.521C-0.0138367 29.2031 0.312511 29.8499 0.874835 30.2364C5.01584 33.0828 10.6615 35 16.0438 35.0001C21.4261 35.0001 27.0697 33.0842 31.21 30.2374C31.772 29.851 32.0983 29.2047 32.0842 28.5228C32.0503 26.8795 30.1795 25.9454 28.8535 26.9165Z" fill="#6F39C5"/>
</svg>
