<?xml version="1.0" encoding="UTF-8"?>
<svg version="1.1" xmlns="http://www.w3.org/2000/svg" width="232" height="213">
<path d="M0 0 C76.56 0 153.12 0 232 0 C232 70.29 232 140.58 232 213 C155.44 213 78.88 213 0 213 C0 142.71 0 72.42 0 0 Z " fill="#FBFCFC" transform="translate(0,0)"/>
<path d="M0 0 C76.56 0 153.12 0 232 0 C232 70.29 232 140.58 232 213 C155.44 213 78.88 213 0 213 C0 142.71 0 72.42 0 0 Z M18 11 C15.73411331 13.86012658 13.77081965 16.81054051 12 20 C11.22685707 21.3474958 11.22685707 21.3474958 10.43809509 22.72221375 C7.90156398 28.77349483 8.57414595 35.51355385 8.59594727 41.95629883 C8.59023937 43.47803752 8.58327349 44.99977193 8.57514954 46.52149963 C8.55724631 50.64152191 8.55838149 54.76133086 8.56409192 58.88138032 C8.56718881 62.32795474 8.56108555 65.77448849 8.55505317 69.22105712 C8.54101799 77.35712281 8.54255999 85.49308349 8.55395508 93.62915039 C8.56542716 102.00492739 8.55137374 110.38038384 8.5245586 118.7561186 C8.50235692 125.96232404 8.49577451 133.1684292 8.50163502 140.37466639 C8.50499612 144.67188644 8.50264649 148.96890121 8.48538399 153.2660923 C8.46984615 157.3103422 8.47394548 161.35411996 8.49268913 165.39835167 C8.49635663 166.87609648 8.49332061 168.35387681 8.48280334 169.83158875 C8.41383412 180.32992433 9.34679996 189.66172004 16.5625 197.8125 C17.14128906 198.49957031 17.72007813 199.18664062 18.31640625 199.89453125 C27.4974343 207.09769591 36.91080138 207.71959903 48.14477539 207.61523438 C49.7459217 207.61874221 51.34706449 207.62440822 52.94819641 207.63204956 C57.26649557 207.64621109 61.58415133 207.62932219 65.90238881 207.60576439 C70.43805055 207.58554628 74.97368841 207.59154056 79.50938416 207.59387207 C87.12265536 207.59381862 94.73567736 207.5741345 102.34887695 207.54199219 C111.13141733 207.50509158 119.91363174 207.49631984 128.69623953 207.5032897 C137.17143819 207.50961007 145.64652594 207.49881291 154.12170219 207.47932434 C157.71674629 207.47118272 161.31173344 207.46843479 164.90678596 207.47001648 C169.14475762 207.47089995 173.3824229 207.45655575 177.62031364 207.43078995 C179.16900013 207.42367105 180.71771931 207.42152372 182.26641846 207.42490768 C194.23890168 207.44606568 205.07895405 206.82532658 214 198 C219.67593012 191.07536526 222.23331546 184.34215093 222.28088379 175.30987549 C222.29230408 174.00354156 222.30372437 172.69720764 222.31549072 171.35128784 C222.31798086 169.92071572 222.32023117 168.49014316 222.32226562 167.05957031 C222.33153348 165.53945439 222.34158433 164.01934307 222.35235596 162.49923706 C222.37849587 158.38334341 222.39147234 154.26751485 222.40037727 150.15155125 C222.40625571 147.57562205 222.41446842 144.99971032 222.42338562 142.42378998 C222.45070584 134.35121412 222.47005415 126.27867856 222.4777894 118.20605969 C222.48674668 108.91136062 222.52183555 99.6172504 222.57979059 90.3227303 C222.62312236 83.1216155 222.64320312 75.9206658 222.64587164 68.7194221 C222.64796058 64.42592973 222.65962079 60.13299199 222.69551086 55.83963776 C222.72864471 51.7977177 222.73270244 47.75676409 222.71523285 43.71475601 C222.71370121 42.23901644 222.72225692 40.76322302 222.74214935 39.28761673 C222.8759641 28.73485522 221.23857328 21.01289661 214.19126129 12.92390823 C204.82723717 3.94506974 194.21793501 3.41512052 181.86108398 3.49829102 C180.24861175 3.49450167 178.63614279 3.48899658 177.02368164 3.48191833 C172.67036245 3.46802772 168.31744131 3.47908772 163.96414447 3.49562955 C159.39463713 3.5095441 154.82515141 3.50301279 150.25563049 3.49949646 C142.58515048 3.49679966 134.91482742 3.51022519 127.24438477 3.53344727 C118.39198435 3.56006314 109.53984608 3.56179909 100.68741935 3.5500589 C92.14975935 3.5392591 83.61219363 3.54548485 75.07454109 3.55961418 C71.45075295 3.56535394 67.82703427 3.56530721 64.20324516 3.56054878 C59.93247487 3.55575689 55.66198963 3.56597173 51.3912735 3.58750343 C49.82926202 3.59304111 48.26722298 3.59356453 46.70520973 3.58855057 C36.13392793 3.55888662 26.42336841 3.88693335 18 11 Z " fill="#C0CAD3" transform="translate(0,0)"/>
<path d="M0 0 C5.28 0 10.56 0 16 0 C17.66165207 1.66165207 17.11959725 3.6651603 17.12442017 5.88401794 C17.12082489 6.58172806 17.11722961 7.27943817 17.11352539 7.99829102 C17.11367142 8.72995483 17.11381744 9.46161865 17.1139679 10.2154541 C17.11326867 12.64496784 17.10547585 15.07440583 17.09765625 17.50390625 C17.0957921 19.18399514 17.09436819 20.86408457 17.09336853 22.54417419 C17.08954307 26.97473643 17.07971256 31.4052661 17.06866455 35.83581543 C17.05845103 40.35342976 17.05387104 44.87104934 17.04882812 49.38867188 C17.03809031 58.25913123 17.02049329 67.12955781 17 76 C11.39 76 5.78 76 0 76 C0 50.92 0 25.84 0 0 Z " fill="#4E7B98" transform="translate(186,71)"/>
<path d="M0 0 C-1.32 5.61 -2.64 11.22 -4 17 C-5.98 16.34 -7.96 15.68 -10 15 C-18.67504921 24.06799013 -27.2893176 33.08320569 -35 43 C-38.95483752 42.25413152 -41.16760134 40.47120071 -44.21875 37.9609375 C-45.94953089 36.83389432 -45.94953089 36.83389432 -47.953125 37.06640625 C-50.79048408 38.36054522 -52.23654828 40.19053799 -54.25 42.5625 C-58.31693103 47.24992465 -62.55908146 51.66798682 -67 56 C-70.2720594 54.57888017 -72.31965496 52.86464013 -74.75 50.26953125 C-75.4409375 49.54958984 -76.131875 48.82964844 -76.84375 48.08789062 C-78.28711156 46.56477811 -79.72458502 45.03606515 -81.15625 43.50195312 C-81.8471875 42.78587891 -82.538125 42.06980469 -83.25 41.33203125 C-83.87390625 40.66921143 -84.4978125 40.0063916 -85.140625 39.32348633 C-86.8961259 37.77980339 -86.8961259 37.77980339 -89.02685547 38.12768555 C-91.1504916 39.06653136 -92.58449028 40.08616146 -94.3203125 41.625 C-94.93318115 42.16237793 -95.5460498 42.69975586 -96.17749023 43.25341797 C-96.82016846 43.82979004 -97.46284668 44.40616211 -98.125 45 C-98.79152588 45.58797363 -99.45805176 46.17594727 -100.14477539 46.78173828 C-102.10359382 48.51340279 -104.05336031 50.25466582 -106 52 C-106.96550781 52.86367187 -107.93101563 53.72734375 -108.92578125 54.6171875 C-110.54865427 56.07600648 -112.16865626 57.53802855 -113.78515625 59.00390625 C-115.96114031 60.96497831 -118.16274994 62.8925105 -120.375 64.8125 C-123.02120015 67.1158726 -125.56839026 69.46707319 -128 72 C-131.68069887 70.46356148 -133.98775204 68.21849055 -136.75 65.375 C-137.54921875 64.55773437 -138.3484375 63.74046875 -139.171875 62.8984375 C-139.77515625 62.27195313 -140.3784375 61.64546875 -141 61 C-145.9989214 62.44036718 -150.04801268 64.61093354 -154.4375 67.3125 C-155.38206055 67.88000977 -155.38206055 67.88000977 -156.34570312 68.45898438 C-159.60752133 70.44021208 -162.72446446 72.51212225 -165.78515625 74.79296875 C-169 77 -169 77 -172 77 C-172.33 75.68 -172.66 74.36 -173 73 C-166.45793032 68.11066372 -159.57987935 63.77203276 -152.625 59.5 C-151.74489258 58.94731445 -150.86478516 58.39462891 -149.95800781 57.82519531 C-149.11850586 57.31569336 -148.27900391 56.80619141 -147.4140625 56.28125 C-146.6607666 55.81783203 -145.9074707 55.35441406 -145.13134766 54.87695312 C-142.56502433 53.82102719 -141.53796756 53.95349394 -139 55 C-136.640625 57.06640625 -136.640625 57.06640625 -134.25 59.5625 C-133.45078125 60.38878906 -132.6515625 61.21507812 -131.828125 62.06640625 C-131.22484375 62.70449219 -130.6215625 63.34257813 -130 64 C-126.63850636 62.52459329 -124.30364448 60.62080185 -121.625 58.125 C-117.50821448 54.34774318 -113.32032097 50.67982031 -109.0625 47.0625 C-103.64727807 42.46099864 -98.38459633 37.73034767 -93.20703125 32.86328125 C-91 31 -91 31 -88 30 C-74.3667426 42.48519362 -74.3667426 42.48519362 -68 49 C-67.32582031 48.32582031 -66.65164062 47.65164062 -65.95703125 46.95703125 C-60.3046875 41.3046875 -54.65234375 35.65234375 -49 30 C-45.6476699 31.25638991 -42.69597385 32.68733888 -39.6875 34.625 C-38.64142578 35.29402344 -38.64142578 35.29402344 -37.57421875 35.9765625 C-37.05472656 36.31429687 -36.53523437 36.65203125 -36 37 C-35.7321167 36.40993164 -35.4642334 35.81986328 -35.18823242 35.21191406 C-33.98826517 32.97815542 -32.73387987 31.43726575 -30.98828125 29.609375 C-30.39805176 28.98571045 -29.80782227 28.3620459 -29.19970703 27.71948242 C-28.26553955 26.74458862 -28.26553955 26.74458862 -27.3125 25.75 C-26.04480469 24.40827751 -24.7778698 23.06583612 -23.51171875 21.72265625 C-22.60172119 20.75996826 -22.60172119 20.75996826 -21.67333984 19.77783203 C-19.62889669 17.60572303 -17.61208632 15.41221726 -15.625 13.1875 C-15.10164062 12.60355469 -14.57828125 12.01960938 -14.0390625 11.41796875 C-12.80297512 10.02411454 -12.80297512 10.02411454 -13 8 C-13.99 7.2575 -13.99 7.2575 -15 6.5 C-15.99 5.7575 -15.99 5.7575 -17 5 C-17 4.34 -17 3.68 -17 3 C-15.48338673 2.48734199 -13.96140553 1.99055677 -12.4375 1.5 C-11.59058594 1.2215625 -10.74367187 0.943125 -9.87109375 0.65625 C-7 0 -7 0 0 0 Z " fill="#587B91" transform="translate(199,36)"/>
<path d="M0 0 C1.12535156 0.00580078 1.12535156 0.00580078 2.2734375 0.01171875 C3.02367187 0.00785156 3.77390625 0.00398438 4.546875 0 C10.14682697 0.01010822 10.14682697 0.01010822 11.2734375 1.13671875 C11.36690665 2.79410318 11.39088727 4.45546519 11.38696289 6.11547852 C11.38688736 7.17650284 11.38681183 8.23752716 11.38673401 9.33070374 C11.38157272 10.48485275 11.37641144 11.63900177 11.37109375 12.828125 C11.3696788 14.00310043 11.36826385 15.17807587 11.36680603 16.38865662 C11.36118742 20.15886939 11.34863176 23.92902379 11.3359375 27.69921875 C11.3309249 30.24804602 11.32636158 32.79687422 11.32226562 35.34570312 C11.31121194 41.60939765 11.29393484 47.87304829 11.2734375 54.13671875 C5.3334375 54.13671875 -0.6065625 54.13671875 -6.7265625 54.13671875 C-6.75120282 46.60701743 -6.76939391 39.07733936 -6.78149414 31.54760742 C-6.7865362 28.98380118 -6.79336964 26.41999784 -6.80200195 23.85620117 C-6.81407314 20.18016854 -6.81979192 16.50417377 -6.82421875 12.828125 C-6.82938004 11.67397598 -6.83454132 10.51982697 -6.83985901 9.33070374 C-6.83993454 8.26967941 -6.84001007 7.20865509 -6.84008789 6.11547852 C-6.8423085 5.17615982 -6.84452911 4.23684113 -6.84681702 3.26905823 C-6.60006151 -1.10638246 -3.71721312 0.00670977 0 0 Z " fill="#557F9C" transform="translate(148.7265625,92.86328125)"/>
<path d="M0 0 C5.61 0 11.22 0 17 0 C17 17.49 17 34.98 17 53 C11.06 53 5.12 53 -1 53 C-1.02464071 45.61271409 -1.0428316 38.22545188 -1.05493164 30.83813477 C-1.05997363 28.32283105 -1.06680703 25.80753028 -1.07543945 23.29223633 C-1.08751094 19.68570225 -1.09322949 16.07920677 -1.09765625 12.47265625 C-1.10281754 11.34038101 -1.10797882 10.20810577 -1.11329651 9.04151917 C-1.11337204 8.00051559 -1.11344757 6.95951202 -1.11352539 5.88696289 C-1.115746 4.96540909 -1.11796661 4.04385529 -1.12025452 3.09437561 C-1 1 -1 1 0 0 Z " fill="#AEBEC6" transform="translate(99,94)"/>
<path d="M0 0 C5.94 0 11.88 0 18 0 C18 16.17 18 32.34 18 49 C12.06 49 6.12 49 0 49 C0 32.83 0 16.66 0 0 Z " fill="#AEBFC8" transform="translate(164,98)"/>
<path d="M0 0 C5.61 0 11.22 0 17 0 C17 15.51 17 31.02 17 47 C11.39 47 5.78 47 0 47 C0 31.49 0 15.98 0 0 Z " fill="#507C9A" transform="translate(121,100)"/>
<path d="M0 0 C1.58206422 0.00574487 3.16410406 0.01876032 4.74609375 0.03515625 C7.53046875 0.05578125 10.31484375 0.07640625 13.18359375 0.09765625 C13.18359375 10.98765625 13.18359375 21.87765625 13.18359375 33.09765625 C7.24359375 33.09765625 1.30359375 33.09765625 -4.81640625 33.09765625 C-4.83931786 28.55861259 -4.85924406 24.01976823 -4.87133789 19.48071289 C-4.87637765 17.93545859 -4.88320945 16.39020909 -4.8918457 14.8449707 C-4.90392701 12.62840596 -4.90963798 10.41190407 -4.9140625 8.1953125 C-4.91922379 7.50051285 -4.92438507 6.8057132 -4.92970276 6.08985901 C-4.92989902 4.42536295 -4.87829754 2.76100126 -4.81640625 1.09765625 C-3.81640625 0.09765625 -3.81640625 0.09765625 0 0 Z " fill="#ACBCC5" transform="translate(80.81640625,113.90234375)"/>
<path d="M0 0 C0.74886475 0.00523682 1.49772949 0.01047363 2.26928711 0.01586914 C3.36188843 0.01961548 3.36188843 0.01961548 4.4765625 0.0234375 C5.40718506 0.0325415 6.33780762 0.04164551 7.29663086 0.05102539 C11.72069336 0.08196289 11.72069336 0.08196289 16.23413086 0.11352539 C16.23413086 9.35352539 16.23413086 18.59352539 16.23413086 28.11352539 C9.96413086 28.11352539 3.69413086 28.11352539 -2.76586914 28.11352539 C-2.79269073 23.63431942 -2.81262091 19.15527188 -2.82836914 14.67602539 C-2.83674805 13.39663086 -2.84512695 12.11723633 -2.85375977 10.79907227 C-2.85698242 9.58413086 -2.86020508 8.36918945 -2.86352539 7.11743164 C-2.86876221 5.99151611 -2.87399902 4.86560059 -2.87939453 3.70556641 C-2.72477143 0.17517195 -2.72477143 0.17517195 0 0 Z " fill="#AEBEC6" transform="translate(55.765869140625,118.886474609375)"/>
<path d="M0 0 C1.58206422 0.00574487 3.16410406 0.01876032 4.74609375 0.03515625 C7.53046875 0.05578125 10.31484375 0.07640625 13.18359375 0.09765625 C13.18359375 9.00765625 13.18359375 17.91765625 13.18359375 27.09765625 C7.24359375 27.09765625 1.30359375 27.09765625 -4.81640625 27.09765625 C-4.84322924 22.78511542 -4.86315869 18.47273918 -4.87890625 14.16015625 C-4.88728516 12.92845703 -4.89566406 11.69675781 -4.90429688 10.42773438 C-4.90751953 9.25791016 -4.91074219 8.08808594 -4.9140625 6.8828125 C-4.91929932 5.7987915 -4.92453613 4.71477051 -4.92993164 3.59790039 C-4.74569928 -0.4595697 -4.26365385 0.10910066 0 0 Z " fill="#537D99" transform="translate(35.81640625,119.90234375)"/>
<path d="M0 0 C28.38 0 56.76 0 86 0 C86 1.32 86 2.64 86 4 C57.62 4 29.24 4 0 4 C0 2.68 0 1.36 0 0 Z " fill="#6C8FA2" transform="translate(51,29)"/>
<path d="M0 0 C1.21042969 -0.00128906 2.42085937 -0.00257813 3.66796875 -0.00390625 C4.94285156 -0.00003906 6.21773437 0.00382813 7.53125 0.0078125 C9.44357422 0.00201172 9.44357422 0.00201172 11.39453125 -0.00390625 C13.21017578 -0.00197266 13.21017578 -0.00197266 15.0625 0 C16.18205078 0.00112793 17.30160156 0.00225586 18.45507812 0.00341797 C21.03125 0.1328125 21.03125 0.1328125 22.03125 1.1328125 C22.10304964 2.65209288 22.11517007 4.17448732 22.09375 5.6953125 C22.08472656 6.52160156 22.07570312 7.34789062 22.06640625 8.19921875 C22.05480469 8.83730469 22.04320312 9.47539062 22.03125 10.1328125 C18.06194011 10.15747131 14.09265966 10.17565273 10.12329102 10.18774414 C8.77204614 10.19278307 7.42080674 10.19961427 6.06958008 10.20825195 C4.13104566 10.22033669 2.192472 10.22551078 0.25390625 10.23046875 C-1.49780884 10.23832397 -1.49780884 10.23832397 -3.28491211 10.24633789 C-5.96875 10.1328125 -5.96875 10.1328125 -6.96875 9.1328125 C-7.1015625 7.3203125 -7.1015625 7.3203125 -7.09375 5.1328125 C-7.09632813 4.4109375 -7.09890625 3.6890625 -7.1015625 2.9453125 C-6.80130871 -1.15226862 -3.35967405 0.00338482 0 0 Z " fill="#ABBBC9" transform="translate(150.96875,173.8671875)"/>
<path d="M0 0 C2.44606039 0.61813801 3.54840808 1.3006503 5.2890625 3.109375 C7.1640625 6.546875 7.1640625 6.546875 7.2890625 10.109375 C5.92561216 14.27547325 4.75791531 16.02353154 1.1640625 18.546875 C-2.68940613 19.4184929 -5.80979899 19.15203361 -9.2734375 17.109375 C-11.55611576 13.36578266 -12.26376025 9.91844565 -11.8359375 5.546875 C-8.82958301 0.63649599 -5.49353988 -0.33071478 0 0 Z " fill="#578399" transform="translate(39.8359375,25.453125)"/>
<path d="M0 0 C6.93 0 13.86 0 21 0 C21 2.97 21 5.94 21 9 C19.41062444 10.58937556 17.76100154 10.12981143 15.5625 10.1328125 C14.22058594 10.13474609 14.22058594 10.13474609 12.8515625 10.13671875 C11.91054687 10.13285156 10.96953125 10.12898437 10 10.125 C8.58847656 10.13080078 8.58847656 10.13080078 7.1484375 10.13671875 C6.25382812 10.13542969 5.35921875 10.13414062 4.4375 10.1328125 C3.61121094 10.13168457 2.78492187 10.13055664 1.93359375 10.12939453 C0 10 0 10 -1 9 C-1.23728814 2.47457627 -1.23728814 2.47457627 0 0 Z " fill="#5B849E" transform="translate(62,174)"/>
<path d="M0 0 C21.45 0 42.9 0 65 0 C65 0.99 65 1.98 65 3 C43.55 3 22.1 3 0 3 C0 2.01 0 1.02 0 0 Z " fill="#4B7389" transform="translate(51,38)"/>
<path d="M0 0 C1.27423828 -0.00193359 1.27423828 -0.00193359 2.57421875 -0.00390625 C3.91419922 0.00189453 3.91419922 0.00189453 5.28125 0.0078125 C6.17457031 0.00394531 7.06789062 0.00007812 7.98828125 -0.00390625 C8.83777344 -0.00261719 9.68726563 -0.00132812 10.5625 0 C11.34689453 0.00112793 12.13128906 0.00225586 12.93945312 0.00341797 C14.78125 0.1328125 14.78125 0.1328125 15.78125 1.1328125 C15.92240161 3.80340101 15.82372107 6.45713488 15.78125 9.1328125 C12.46876813 9.16169396 9.15631833 9.17957049 5.84375 9.1953125 C4.89822266 9.20369141 3.95269531 9.21207031 2.97851562 9.22070312 C1.62983398 9.22553711 1.62983398 9.22553711 0.25390625 9.23046875 C-0.57874756 9.23570557 -1.41140137 9.24094238 -2.26928711 9.24633789 C-4.21875 9.1328125 -4.21875 9.1328125 -5.21875 8.1328125 C-5.34375 4.6328125 -5.34375 4.6328125 -5.21875 1.1328125 C-3.66268249 -0.42325501 -2.15917629 0.00310481 0 0 Z " fill="#538099" transform="translate(186.21875,173.8671875)"/>
<path d="M0 0 C0.79792969 0.00386719 1.59585938 0.00773438 2.41796875 0.01171875 C3.21589844 0.00785156 4.01382813 0.00398437 4.8359375 0 C10.79136108 0.01011108 10.79136108 0.01011108 11.91796875 1.13671875 C12.10546875 4.57421875 12.10546875 4.57421875 11.91796875 8.13671875 C9.91796875 10.13671875 9.91796875 10.13671875 6.2578125 10.3671875 C4.79030011 10.36319608 3.32278666 10.34844033 1.85546875 10.32421875 C1.10974609 10.32357422 0.36402344 10.32292969 -0.40429688 10.32226562 C-5.94174966 10.27700034 -5.94174966 10.27700034 -7.08203125 9.13671875 C-7.21484375 7.32421875 -7.21484375 7.32421875 -7.20703125 5.13671875 C-7.20960937 4.41484375 -7.2121875 3.69296875 -7.21484375 2.94921875 C-6.90756306 -1.24425884 -3.41977611 0.00580607 0 0 Z " fill="#4D7C97" transform="translate(129.08203125,173.86328125)"/>
<path d="M0 0 C0.33 0 0.66 0 1 0 C1 24.75 1 49.5 1 75 C-0.32 75 -1.64 75 -3 75 C-3 64.44 -3 53.88 -3 43 C-2.34 43.99 -1.68 44.98 -1 46 C-0.67 30.82 -0.34 15.64 0 0 Z " fill="#DCE9EE" transform="translate(185,72)"/>
<path d="M0 0 C19.47 0 38.94 0 59 0 C52.78926951 4.14048699 44.81541837 3.13362557 37.59765625 3.09765625 C36.51995468 3.0962413 35.44225311 3.09482635 34.33189392 3.09336853 C30.90873371 3.08779611 27.48564025 3.07524868 24.0625 3.0625 C21.73372491 3.05748144 19.40494878 3.05291915 17.07617188 3.04882812 C11.38409202 3.03783571 5.69205078 3.02112514 0 3 C0 2.01 0 1.02 0 0 Z " fill="#4F7990" transform="translate(51,30)"/>
<path d="M0 0 C1.27875 0.00257813 2.5575 0.00515625 3.875 0.0078125 C5.15375 0.00523437 6.4325 0.00265625 7.75 0 C10.875 0.1328125 10.875 0.1328125 11.875 1.1328125 C11.78562197 2.65800526 11.62962854 4.17963179 11.4375 5.6953125 C11.33566406 6.52160156 11.23382813 7.34789062 11.12890625 8.19921875 C11.04511719 8.83730469 10.96132812 9.47539062 10.875 10.1328125 C8.56256208 10.15966662 6.2500373 10.17914091 3.9375 10.1953125 C2.64972656 10.20691406 1.36195312 10.21851563 0.03515625 10.23046875 C-3.125 10.1328125 -3.125 10.1328125 -4.125 9.1328125 C-4.2578125 7.3203125 -4.2578125 7.3203125 -4.25 5.1328125 C-4.25257812 4.4109375 -4.25515625 3.6890625 -4.2578125 2.9453125 C-4.02424331 -0.24222 -3.25787695 0.13845977 0 0 Z " fill="#E7EDEF" transform="translate(106.125,173.8671875)"/>
<path d="M0 0 C-1.32 5.61 -2.64 11.22 -4 17 C-8 15 -8 15 -9.375 12.6875 C-10.88677285 10.18726029 -11.9572407 9.07790432 -14.1875 7.3125 C-15.5796875 6.1678125 -15.5796875 6.1678125 -17 5 C-17 4.34 -17 3.68 -17 3 C-15.48338673 2.48734199 -13.96140553 1.99055677 -12.4375 1.5 C-11.59058594 1.2215625 -10.74367187 0.943125 -9.87109375 0.65625 C-7 0 -7 0 0 0 Z " fill="#558098" transform="translate(199,36)"/>
<path d="M0 0 C-0.30419922 1.86352539 -0.30419922 1.86352539 -1 4 C-3.35860988 5.64396873 -5.62155451 7.05439414 -8.125 8.4375 C-9.44185652 9.18311145 -10.7569702 9.93180952 -12.0703125 10.68359375 C-12.72161133 11.05468262 -13.37291016 11.42577148 -14.04394531 11.80810547 C-16.05499487 13.03351035 -17.91836897 14.37661908 -19.8046875 15.78515625 C-23 18 -23 18 -26 18 C-26.33 16.68 -26.66 15.36 -27 14 C-21.69451117 10.13826145 -16.29783402 6.46902251 -10.6875 3.0625 C-9.72199219 2.47597656 -8.75648437 1.88945313 -7.76171875 1.28515625 C-4.88624704 -0.05293454 -3.12552276 -0.27896287 0 0 Z " fill="#4D758C" transform="translate(53,95)"/>
<path d="M0 0 C1.79244141 0.01740234 1.79244141 0.01740234 3.62109375 0.03515625 C5.41740234 0.04869141 5.41740234 0.04869141 7.25 0.0625 C8.17683594 0.07410156 9.10367188 0.08570313 10.05859375 0.09765625 C10.05859375 3.06765625 10.05859375 6.03765625 10.05859375 9.09765625 C7.91282738 9.12451563 5.7669673 9.14398713 3.62109375 9.16015625 C2.42613281 9.17175781 1.23117188 9.18335938 0 9.1953125 C-2.94140625 9.09765625 -2.94140625 9.09765625 -3.94140625 8.09765625 C-4.06640625 4.59765625 -4.06640625 4.59765625 -3.94140625 1.09765625 C-2.94140625 0.09765625 -2.94140625 0.09765625 0 0 Z " fill="#538097" transform="translate(33.94140625,173.90234375)"/>
<path d="M0 0 C0.33 0.99 0.66 1.98 1 3 C2.65 3.33 4.3 3.66 6 4 C6 6.31 6 8.62 6 11 C5.01 11 4.02 11 3 11 C2.34 12.65 1.68 14.3 1 16 C1.99 16.33 2.98 16.66 4 17 C-0.52437895 17.36684154 -0.52437895 17.36684154 -2.60546875 15.76171875 C-5.10851305 12.59960957 -5.37946589 8.9395459 -5 5 C-2.5625 1.9375 -2.5625 1.9375 0 0 Z " fill="#537F98" transform="translate(33,26)"/>
<path d="M0 0 C1.37478516 0.01740234 1.37478516 0.01740234 2.77734375 0.03515625 C3.69644531 0.04417969 4.61554688 0.05320313 5.5625 0.0625 C6.27277344 0.07410156 6.98304688 0.08570313 7.71484375 0.09765625 C7.71484375 3.06765625 7.71484375 6.03765625 7.71484375 9.09765625 C4.08484375 9.09765625 0.45484375 9.09765625 -3.28515625 9.09765625 C-3.3828125 2.9453125 -3.3828125 2.9453125 -3.28515625 1.09765625 C-2.28515625 0.09765625 -2.28515625 0.09765625 0 0 Z " fill="#2D4B67" transform="translate(147.28515625,173.90234375)"/>
<path d="M0 0 C1.32 1.32 2.64 2.64 4 4 C3.45730469 4.53109375 2.91460937 5.0621875 2.35546875 5.609375 C1.64003906 6.31578125 0.92460937 7.0221875 0.1875 7.75 C-0.52019531 8.44609375 -1.22789062 9.1421875 -1.95703125 9.859375 C-4.03281493 11.93721763 -4.03281493 11.93721763 -5.63671875 14.265625 C-6.31154297 15.12414062 -6.31154297 15.12414062 -7 16 C-7.66 16 -8.32 16 -9 16 C-9 15.34 -9 14.68 -9 14 C-9.66 14 -10.32 14 -11 14 C-9.42219077 10.28954753 -7.09296752 7.70093616 -4.375 4.75 C-3.55773437 3.85796875 -2.74046875 2.9659375 -1.8984375 2.046875 C-1.27195313 1.37140625 -0.64546875 0.6959375 0 0 Z " fill="#4A7189" transform="translate(187,45)"/>
<path d="M0 0 C3.3 0 6.6 0 10 0 C10.04241723 2.33294775 10.04092937 4.66702567 10 7 C9 8 9 8 6.93359375 8.09765625 C6.10988281 8.08605469 5.28617188 8.07445312 4.4375 8.0625 C3.61121094 8.05347656 2.78492188 8.04445312 1.93359375 8.03515625 C1.29550781 8.02355469 0.65742188 8.01195312 0 8 C0 5.36 0 2.72 0 0 Z " fill="#2E425E" transform="translate(163,175)"/>
<path d="M0 0 C7.34693878 -0.48979592 7.34693878 -0.48979592 10.5 1.875 C12 4 12 4 12 6 C9.69 7.32 7.38 8.64 5 10 C5 8.02 5 6.04 5 4 C3.35 3.67 1.7 3.34 0 3 C0 2.01 0 1.02 0 0 Z " fill="#517E94" transform="translate(34,26)"/>
<path d="M0 0 C1.58206057 0.00667536 3.16410534 0.0186375 4.74609375 0.03515625 C5.55240234 0.03966797 6.35871094 0.04417969 7.18945312 0.04882812 C9.18753131 0.06065107 11.18557158 0.07858711 13.18359375 0.09765625 C13.18359375 0.42765625 13.18359375 0.75765625 13.18359375 1.09765625 C12.26835937 1.15824219 11.353125 1.21882812 10.41015625 1.28125 C9.22164062 1.36503906 8.033125 1.44882813 6.80859375 1.53515625 C5.62523437 1.61636719 4.441875 1.69757813 3.22265625 1.78125 C0.26840474 1.90850561 0.26840474 1.90850561 -1.81640625 3.09765625 C-2.14640625 4.74765625 -2.47640625 6.39765625 -2.81640625 8.09765625 C2.13359375 8.42765625 7.08359375 8.75765625 12.18359375 9.09765625 C12.18359375 9.42765625 12.18359375 9.75765625 12.18359375 10.09765625 C9.53769361 10.12450304 6.89206279 10.14441982 4.24609375 10.16015625 C3.11397461 10.17272461 3.11397461 10.17272461 1.95898438 10.18554688 C0.03365062 10.19418066 -1.89176206 10.14989958 -3.81640625 10.09765625 C-4.81640625 9.09765625 -4.81640625 9.09765625 -4.94921875 7.28515625 C-4.94664063 6.56328125 -4.9440625 5.84140625 -4.94140625 5.09765625 C-4.94398437 4.37578125 -4.9465625 3.65390625 -4.94921875 2.91015625 C-4.693338 -0.58186335 -3.64518934 0.09327506 0 0 Z " fill="#7492A3" transform="translate(126.81640625,173.90234375)"/>
<path d="M0 0 C3.3 0 6.6 0 10 0 C10 2.97 10 5.94 10 9 C7.69 8.67 5.38 8.34 3 8 C3 6.35 3 4.7 3 3 C4.98 2.34 6.96 1.68 9 1 C6.03 1 3.06 1 0 1 C0 0.67 0 0.34 0 0 Z " fill="#49647F" transform="translate(145,174)"/>
<path d="M0 0 C0.33 0.66 0.66 1.32 1 2 C-0.4375 4.625 -0.4375 4.625 -2 7 C-1.34 7.66 -0.68 8.32 0 9 C-3.99455527 8.38545304 -6.74466336 6.29353263 -10 4 C-9.34 3.34 -8.68 2.68 -8 2 C-4.375 2.375 -4.375 2.375 -1 3 C-0.67 2.01 -0.34 1.02 0 0 Z " fill="#62839B" transform="translate(164,70)"/>
<path d="M0 0 C0.66 0.33 1.32 0.66 2 1 C-2.76008307 6.5930976 -7.74595676 11.86877855 -13 17 C-13.66 16.67 -14.32 16.34 -15 16 C-14.36384766 15.38125 -14.36384766 15.38125 -13.71484375 14.75 C-9.75129367 10.84742761 -6.01204355 6.81667838 -2.3828125 2.6015625 C-1.61429517 1.71147181 -0.83152881 0.83152881 0 0 Z " fill="#E2EDF2" transform="translate(189,50)"/>
<path d="M0 0 C1.32 1.32 2.64 2.64 4 4 C2.35 5.32 0.7 6.64 -1 8 C-1.33 7.34 -1.66 6.68 -2 6 C-3.65 6.66 -5.3 7.32 -7 8 C-6.02133662 6.85373678 -5.04205413 5.70800212 -4.0625 4.5625 C-3.51722656 3.92441406 -2.97195312 3.28632812 -2.41015625 2.62890625 C-1.63204305 1.73008851 -0.84063472 0.84063472 0 0 Z " fill="#547A8C" transform="translate(187,45)"/>
<path d="M0 0 C0.66 0.33 1.32 0.66 2 1 C-0.64672505 6.02877759 -2.75188591 7.25062864 -8 9 C-6.64531705 4.12314139 -4.28324091 2.51407619 0 0 Z " fill="#426C86" transform="translate(81,93)"/>
<path d="M0 0 C1.32 0.66 2.64 1.32 4 2 C3.34 2 2.68 2 2 2 C1.67 2.99 1.34 3.98 1 5 C-2.5625 6.6875 -2.5625 6.6875 -6 8 C-4.55746343 4.63408134 -2.66735273 2.48952921 0 0 Z " fill="#476E87" transform="translate(98,76)"/>
<path d="M0 0 C0 0.99 0 1.98 0 3 C-2.5 5.1875 -2.5 5.1875 -5 7 C-5.33 6.01 -5.66 5.02 -6 4 C-6.99 4 -7.98 4 -9 4 C-6.06171403 1.49701566 -3.82097239 0.53069061 0 0 Z " fill="#5A7E93" transform="translate(87,90)"/>
<path d="M0 0 C2.31 0 4.62 0 7 0 C7.33 0.99 7.66 1.98 8 3 C6.02 3.99 6.02 3.99 4 5 C2.68 3.35 1.36 1.7 0 0 Z " fill="#5E8099" transform="translate(126,87)"/>
<path d="M0 0 C0.99 0.33 1.98 0.66 3 1 C-0.96 4.465 -0.96 4.465 -5 8 C-5.33 7.01 -5.66 6.02 -6 5 C-5.34 5 -4.68 5 -4 5 C-3.67 4.01 -3.34 3.02 -3 2 C-2.01 1.34 -1.02 0.68 0 0 Z " fill="#597B92" transform="translate(106,73)"/>
<path d="M0 0 C1.65 0.33 3.3 0.66 5 1 C4.01 2.485 4.01 2.485 3 4 C0.375 4.1875 0.375 4.1875 -2 4 C-1.34 2.68 -0.68 1.36 0 0 Z " fill="#476F86" transform="translate(170,64)"/>
<path d="M0 0 C1.98 0 3.96 0 6 0 C5.67 1.32 5.34 2.64 5 4 C3.35 3.67 1.7 3.34 0 3 C0 2.01 0 1.02 0 0 Z " fill="#49778E" transform="translate(34,26)"/>
<path d="M0 0 C0.99 0 1.98 0 3 0 C2.4375 1.9375 2.4375 1.9375 1 4 C-2.625 4.75 -2.625 4.75 -6 5 C-5.195625 4.360625 -4.39125 3.72125 -3.5625 3.0625 C-1.7249496 1.59396498 -1.7249496 1.59396498 0 0 Z " fill="#43708B" transform="translate(88,87)"/>
<path d="M0 0 C1.98 0 3.96 0 6 0 C5.34 1.32 4.68 2.64 4 4 C2.35 3.67 0.7 3.34 -1 3 C-0.67 2.01 -0.34 1.02 0 0 Z " fill="#497E97" transform="translate(35,39)"/>
<path d="M0 0 C0.66 0.33 1.32 0.66 2 1 C2.625 3.0625 2.625 3.0625 3 5 C1.68 5.33 0.36 5.66 -1 6 C-1.625 4.125 -1.625 4.125 -2 2 C-1.34 1.34 -0.68 0.68 0 0 Z " fill="#6B8797" transform="translate(28,107)"/>
<path d="M0 0 C1.65 0 3.3 0 5 0 C4.67 1.65 4.34 3.3 4 5 C2.68 4.34 1.36 3.68 0 3 C0 2.01 0 1.02 0 0 Z " fill="#6A8799" transform="translate(191,48)"/>
<path d="M0 0 C0.66 0 1.32 0 2 0 C2 1.98 2 3.96 2 6 C1.01 6 0.02 6 -1 6 C-1.042721 4.33388095 -1.04063832 2.66617115 -1 1 C-0.67 0.67 -0.34 0.34 0 0 Z " fill="#7BA0B4" transform="translate(37,30)"/>
<path d="M0 0 C0 3 0 3 -1.375 4.6875 C-3 6 -3 6 -5 6 C-4.75 4.125 -4.75 4.125 -4 2 C-1.9375 0.75 -1.9375 0.75 0 0 Z " fill="#4C728D" transform="translate(81,95)"/>
</svg>
