<svg width="35" height="36" viewBox="0 0 35 36" fill="none" xmlns="http://www.w3.org/2000/svg">
<path d="M34.018 18.958C34.018 16.896 33.651 14.919 32.978 13.09C32.518 18.479 29.645 21.247 26.643 19.958C23.831 18.75 25.726 14.041 25.866 11.794C26.102 7.985 25.854 3.625 18.935 0C21.81 5.5 19.268 8.917 16.602 9.125C13.644 9.356 10.935 6.583 11.935 2.083C8.69701 4.469 8.603 8.485 9.60201 11.083C10.644 13.791 9.56001 16.041 7.01901 16.291C4.17901 16.571 2.60101 13.25 4.05601 7.958C1.53801 10.923 0.0180054 14.763 0.0180054 18.958C0.0180054 28.347 7.62901 35.958 17.018 35.958C26.407 35.958 34.018 28.347 34.018 18.958Z" fill="#F4900C"/>
<path d="M27.412 23.957C27.56 27.041 24.851 28.25 23.393 27.666C21.287 26.823 21.852 25.375 21.31 22.375C20.768 19.375 18.685 17.292 15.602 16.375C17.852 22.708 14.355 25.042 12.522 25.459C10.65 25.885 8.76901 25.458 8.55401 21.452C6.37001 23.626 5.01801 26.634 5.01801 29.958C5.01801 30.326 5.04101 30.688 5.07301 31.048C8.14301 34.082 12.36 35.958 17.018 35.958C21.676 35.958 25.893 34.082 28.963 31.048C28.995 30.688 29.018 30.326 29.018 29.958C29.018 27.771 28.434 25.722 27.412 23.957Z" fill="#FFCC4D"/>
</svg>
