<svg width="33" height="36" viewBox="0 0 33 36" fill="none" xmlns="http://www.w3.org/2000/svg">
<path d="M32.018 18.084C32.018 18.587 31.898 19.059 31.697 19.488C30.356 23.814 24.078 23.498 15.148 23.709C13.655 23.744 14.509 25.507 15.033 29.377C15.374 31.894 13.751 35.759 11.023 35.759C6.525 35.759 10.852 32.211 6.875 23.437C4.75 18.749 0 21.375 0 16.666V5.948C0 4.115 0.18 2.353 2.758 2.063C5.257 1.781 4.695 0 8.3 0H26.344C28.182 0 29.677 1.496 29.677 3.334C29.677 4.096 29.41 4.79 28.979 5.352C29.999 5.923 30.699 7.001 30.699 8.251C30.699 9.011 30.433 9.705 30.003 10.266C31.026 10.836 31.728 11.915 31.728 13.167C31.728 14.076 31.36 14.9 30.767 15.503C31.524 16.114 32.018 17.038 32.018 18.084Z" fill="#FFDB5E"/>
<path d="M20.082 14.751H28.686C29.856 14.751 30.954 15.377 31.552 16.384C31.798 16.799 31.661 17.336 31.245 17.583C30.83 17.83 30.293 17.691 30.046 17.276C29.763 16.797 29.24 16.501 28.685 16.501H19.875C19.002 16.501 18.292 17.211 18.292 18.084C18.292 18.957 19.002 19.667 19.875 19.667H25.762C26.245 19.667 26.637 20.059 26.637 20.542C26.637 21.025 26.245 21.417 25.762 21.417H19.874C18.036 21.417 16.541 19.922 16.541 18.084C16.541 17.059 17.016 16.152 17.746 15.54C17.131 14.935 16.748 14.095 16.748 13.167C16.748 12.139 17.226 11.229 17.96 10.618C17.349 10.014 16.97 9.17701 16.97 8.25101C16.97 7.13101 17.529 6.14301 18.379 5.53801C17.855 4.94901 17.527 4.18201 17.527 3.33401C17.527 1.49601 19.022 0.00100708 20.86 0.00100708H26.344C27.514 0.00100708 28.613 0.626007 29.211 1.63301C29.458 2.04801 29.321 2.58501 28.906 2.83201C28.49 3.07701 27.953 2.94201 27.707 2.52701C27.422 2.04801 26.899 1.75101 26.344 1.75101H20.86C19.987 1.75101 19.277 2.46101 19.277 3.33401C19.277 4.20701 19.987 4.91701 20.86 4.91701H27.366C28.536 4.91701 29.636 5.54301 30.233 6.55001C30.48 6.96601 30.343 7.50301 29.928 7.74901C29.509 8.00001 28.974 7.85901 28.729 7.44401C28.44 6.95701 27.93 6.66701 27.366 6.66701H20.303C19.43 6.66701 18.72 7.37801 18.72 8.25101C18.72 9.12401 19.43 9.83401 20.303 9.83401H28.394C29.564 9.83401 30.663 10.459 31.261 11.466C31.508 11.881 31.371 12.418 30.956 12.665C30.539 12.911 30.003 12.775 29.757 12.36C29.468 11.874 28.958 11.584 28.394 11.584H20.082C19.209 11.584 18.499 12.294 18.499 13.167C18.499 14.04 19.208 14.751 20.082 14.751Z" fill="#EE9547"/>
</svg>
