<svg width="40" height="28" viewBox="0 0 40 28" fill="none" xmlns="http://www.w3.org/2000/svg">
<path d="M40 6.66667V5.83333C40 2.61167 37.3883 0 34.1667 0H5.83333C2.61167 0 0 2.61167 0 5.83333V6.66667C0 7.12667 0.373333 7.5 0.833333 7.5H39.1667C39.6267 7.5 40 7.12667 40 6.66667Z" fill="#6F39C5"/>
<path d="M0 11.3665V21.3665C0 24.5882 2.61167 27.1999 5.83333 27.1999H34.1667C37.3883 27.1999 40 24.5882 40 21.3665V11.3665C40 10.9065 39.6267 10.5332 39.1667 10.5332H0.833333C0.373333 10.5332 0 10.9065 0 11.3665ZM17.5 20.6499H7.5C6.58 20.6499 5.83333 19.9032 5.83333 18.9832C5.83333 18.0632 6.58 17.3165 7.5 17.3165H17.5C18.42 17.3165 19.1667 18.0632 19.1667 18.9832C19.1667 19.9032 18.42 20.6499 17.5 20.6499ZM31.6667 21.3665C30.2858 21.3665 29.1667 20.2474 29.1667 18.8665C29.1667 17.4857 30.2858 16.3665 31.6667 16.3665C33.0475 16.3665 34.1667 17.4857 34.1667 18.8665C34.1667 20.2474 33.0475 21.3665 31.6667 21.3665Z" fill="black"/>
</svg>
