<?xml version="1.0" encoding="UTF-8"?>
<svg version="1.1" xmlns="http://www.w3.org/2000/svg" width="216" height="204">
<path d="M0 0 C71.28 0 142.56 0 216 0 C216 67.32 216 134.64 216 204 C144.72 204 73.44 204 0 204 C0 136.68 0 69.36 0 0 Z " fill="#FDFDFD" transform="translate(0,0)"/>
<path d="M0 0 C9.41723123 0.43598293 17.95270084 1.16389629 27 4 C28.22396484 4.38091797 28.22396484 4.38091797 29.47265625 4.76953125 C41.00270965 8.87535514 51.28969129 16.54316588 60 25 C60.99 24.34 61.98 23.68 63 23 C62.29827938 19.81018585 62.29827938 19.81018585 59.5 18.5 C57 17 57 17 56 14 C59.74902747 13.32778525 63.49936721 12.66319433 67.25 12 C68.31347656 11.80921875 69.37695312 11.6184375 70.47265625 11.421875 C72.00986328 11.15117188 72.00986328 11.15117188 73.578125 10.875 C74.52075195 10.70742188 75.46337891 10.53984375 76.43457031 10.3671875 C79 10 79 10 83 10 C82.57638021 16.60262571 81.44481111 22.75419889 79.71875 29.140625 C78.98002582 32.0794625 78.46059568 35.00612806 78 38 C77.34 38 76.68 38 76 38 C72 32.58823529 72 32.58823529 72 30 C70.35 30.99 68.7 31.98 67 33 C67.69656104 38.46694877 70.35315594 42.82101626 72.94140625 47.58984375 C78.0047496 57.28360518 79.49548199 66.5740403 79.375 77.4375 C79.38660156 78.47970703 79.39820313 79.52191406 79.41015625 80.59570312 C79.33202364 101.60035271 69.73731853 119.49211327 55.5625 134.53125 C42.00629088 147.59150025 23.02325622 155.0984466 4.25 155.125 C2.8475 155.08375 1.445 155.0425 0 155 C0 149.06 0 143.12 0 137 C2.206875 136.773125 4.41375 136.54625 6.6875 136.3125 C20.88272537 134.56255261 35.68119531 128.32138068 45.28125 117.40625 C54.6639508 105.11623346 59.40039569 92.75307927 59.375 77.3125 C59.37411377 76.34441406 59.37322754 75.37632813 59.37231445 74.37890625 C59.20377144 64.1397044 56.67978531 56.11820633 52 47 C47.96878791 49.2675568 44.39695332 51.94235599 40.76953125 54.79296875 C39 56 39 56 37 56 C37.27714844 56.72445312 37.55429688 57.44890625 37.83984375 58.1953125 C38.38318359 59.64550781 38.38318359 59.64550781 38.9375 61.125 C39.29714844 62.07632813 39.65679687 63.02765625 40.02734375 64.0078125 C43.76207486 75.49698531 43.07101638 87.80862159 37.7109375 98.59375 C32.08175168 108.58781252 24.37825905 115.89486902 13.5 119.8125 C2.41913325 122.80501803 -10.49522787 122.24733269 -20.546875 116.55859375 C-31.00030557 109.73218682 -39.20516317 100.45388438 -42 88 C-43.64219495 75.37914348 -42.67459144 63.34834927 -35.1875 52.75 C-34.14540604 51.48293787 -33.08290658 50.23236342 -32 49 C-31.49855469 48.39414063 -30.99710938 47.78828125 -30.48046875 47.1640625 C-24.55539957 40.56143066 -15.34989216 35.41153017 -6.4453125 34.7265625 C7.30809548 34.26464046 17.49649131 37.00764418 27.9765625 46.42578125 C29.9673548 48.30702305 29.9673548 48.30702305 33 48 C35.15028304 47.05021103 35.15028304 47.05021103 37 46 C37 45.34 37 44.68 37 44 C38.96147874 42.61061923 40.96166576 41.2739589 43 40 C42.14071158 34.22865989 37.43736565 31.30415032 33 28 C22.58415302 21.68265455 12.05525234 18.87356901 0 18 C0 12.06 0 6.12 0 0 Z " fill="#DBB76A" transform="translate(104,25)"/>
<path d="M0 0 C3.83625 0.0309375 3.83625 0.0309375 7.75 0.0625 C7.75 5.6725 7.75 11.2825 7.75 17.0625 C9.07 16.959375 10.39 16.85625 11.75 16.75 C26.66019211 16.79229842 40.19789148 24.29109296 50.703125 34.38671875 C51.75 36.0625 51.75 36.0625 51.54296875 38.16015625 C50.48089802 40.70807962 49.08247187 41.64888068 46.75 43.0625 C46.09 43.0625 45.43 43.0625 44.75 43.0625 C44.75 43.7225 44.75 44.3825 44.75 45.0625 C42.79072937 46.7768618 40.79119788 48.44655168 38.75 50.0625 C38.19699219 49.31226563 37.64398438 48.56203125 37.07421875 47.7890625 C30.49095946 40.06618018 20.79170668 35.59860358 10.83203125 34.71484375 C-1.15427533 34.13859202 -10.27171066 36.37679686 -19.625 44.3125 C-28.30865494 52.73132438 -33.48504801 62.02123378 -33.82055664 74.25439453 C-33.7755305 88.20158244 -30.75429234 98.63878615 -20.67578125 108.9375 C-10.32421366 118.00553989 0.39980914 120.01303498 13.77978516 119.25341797 C24.65882915 118.19921569 32.86011024 112.49194942 40.0625 104.625 C47.82493864 94.99183516 49.69982056 84.18668008 48.75 72.0625 C48.13966236 68.89172155 47.38676163 65.82367132 46.50390625 62.71875 C45.78329118 60.17979534 45.23388774 57.65576244 44.75 55.0625 C45.575 54.52625 46.4 53.99 47.25 53.4375 C51.2040456 50.80777589 54.97311074 47.938304 58.75 45.0625 C61.73880048 47.59686298 62.91279579 50.34029824 64.375 53.9375 C64.80039063 54.96617188 65.22578125 55.99484375 65.6640625 57.0546875 C70.90817531 71.57974816 68.74186883 89.7108837 62.65234375 103.55859375 C55.38439834 117.77420224 43.676456 127.61217582 28.75 133.0625 C21.31225065 135.43035859 15.75556357 136.0625 7.75 136.0625 C7.75 142.0025 7.75 147.9425 7.75 154.0625 C-1.5453981 154.34136194 -9.39341084 153.89859878 -18.25 151.0625 C-19.44109375 150.71445312 -19.44109375 150.71445312 -20.65625 150.359375 C-39.12799884 144.07898039 -52.65148982 129.38370214 -62.25 113.0625 C-62.76820312 112.18335938 -63.28640625 111.30421875 -63.8203125 110.3984375 C-72.54750557 94.35503467 -73.02311858 72.68476729 -68.1875 55.3125 C-64.5419532 43.45223286 -58.46962859 33.31955744 -50.25 24.0625 C-49.65832031 23.37671875 -49.06664063 22.6909375 -48.45703125 21.984375 C-36.42934877 8.95652276 -17.77523453 -0.20256167 0 0 Z " fill="#B1C0C9" transform="translate(96.25,25.9375)"/>
<path d="M0 0 C4.74814993 2.61210886 9.3578527 5.53781899 12.9609375 9.62890625 C12.9609375 13.62890625 12.9609375 13.62890625 10.94921875 15.8046875 C10.06621094 16.50980469 9.18320313 17.21492188 8.2734375 17.94140625 C7.40332031 18.65941406 6.53320312 19.37742187 5.63671875 20.1171875 C2.9609375 21.62890625 2.9609375 21.62890625 0.38671875 21.484375 C-1.91600407 20.67230367 -4.01085804 19.77728196 -6.1640625 18.62890625 C-11.83143744 15.62982846 -16.66436364 14.92060638 -23.0390625 15.62890625 C-25.9151991 16.66274751 -28.4236174 18.06420765 -31.0390625 19.62890625 C-31.75191406 19.96664062 -32.46476562 20.304375 -33.19921875 20.65234375 C-35.63007114 21.9426051 -35.98822838 23.10690437 -37.0390625 25.62890625 C-37.54179688 26.51578125 -38.04453125 27.40265625 -38.5625 28.31640625 C-41.49814535 34.90219264 -41.39986299 42.89394319 -38.9375 49.65234375 C-35.73823484 55.34943091 -31.5942301 60.14895728 -25.1875 62.23046875 C-18.15464 63.5347446 -10.98381585 63.59507265 -4.71875 59.890625 C0.1396422 56.24118156 3.22013611 51.40410784 4.9609375 45.62890625 C5.02197857 43.02537172 4.99803656 40.41875098 4.8984375 37.81640625 C4.92992459 33.14382996 5.32579674 29.84461924 8.58203125 26.33203125 C11.51000021 23.68043015 14.46791791 21.479544 17.9609375 19.62890625 C20.9609375 20.62890625 20.9609375 20.62890625 21.875 22.265625 C22.10960937 22.94238281 22.34421875 23.61914062 22.5859375 24.31640625 C22.82570313 24.98027344 23.06546875 25.64414063 23.3125 26.328125 C26.53613159 37.76619132 25.96041631 49.5814701 20.671875 60.22265625 C15.04268918 70.21671877 7.33919655 77.52377527 -3.5390625 81.44140625 C-14.61992925 84.43392428 -27.53429037 83.87623894 -37.5859375 78.1875 C-48.03936807 71.36109307 -56.24422567 62.08279063 -59.0390625 49.62890625 C-60.68125745 37.00804973 -59.71365394 24.97725552 -52.2265625 14.37890625 C-51.18446854 13.11184412 -50.12196908 11.86126967 -49.0390625 10.62890625 C-48.53761719 10.02304688 -48.03617188 9.4171875 -47.51953125 8.79296875 C-35.53723717 -4.55956334 -15.93824004 -7.04574591 0 0 Z " fill="#4A7796" transform="translate(121.0390625,63.37109375)"/>
<path d="M0 0 C4.40788007 3.02189716 6.51358643 6.26783168 8.625 11.0625 C8.91117187 11.66771484 9.19734375 12.27292969 9.4921875 12.89648438 C13.90309818 22.59046307 15.49268711 31.82604521 15.375 42.4375 C15.38660156 43.47970703 15.39820313 44.52191406 15.41015625 45.59570312 C15.33202364 66.60035271 5.73731853 84.49211327 -8.4375 99.53125 C-21.99370912 112.59150025 -40.97674378 120.0984466 -59.75 120.125 C-61.85375 120.063125 -61.85375 120.063125 -64 120 C-64 114.06 -64 108.12 -64 102 C-61.793125 101.773125 -59.58625 101.54625 -57.3125 101.3125 C-43.11727463 99.56255261 -28.31880469 93.32138068 -18.71875 82.40625 C-9.3360492 70.11623346 -4.59960431 57.75307927 -4.625 42.3125 C-4.62588623 41.34441406 -4.62677246 40.37632813 -4.62768555 39.37890625 C-4.77495839 30.4318939 -6.2790481 22.77825699 -10.76171875 14.90625 C-12 12 -12 12 -11.5078125 9.890625 C-9.54984678 7.43555918 -7.36295866 5.66381435 -4.875 3.75 C-3.96492188 3.04359375 -3.05484375 2.3371875 -2.1171875 1.609375 C-1.41851562 1.07828125 -0.71984375 0.5471875 0 0 Z " fill="#2E3E5B" transform="translate(168,60)"/>
<path d="M0 0 C10.23 0 20.46 0 31 0 C31 67.32 31 134.64 31 204 C-40.28 204 -111.56 204 -185 204 C-185 194.1 -185 184.2 -185 174 C-184.67 174 -184.34 174 -184 174 C-183.7215625 175.918125 -183.7215625 175.918125 -183.4375 177.875 C-181.81530655 185.11775104 -177.43133341 191.39824392 -171.625 196 C-163.17531843 201.09299065 -153.10159536 200.2979145 -143.58886719 200.29052734 C-142.04214659 200.29652088 -140.49542897 200.30332831 -138.94871521 200.31088257 C-134.76874035 200.32846647 -130.5888475 200.33323474 -126.40883923 200.33451414 C-123.79100644 200.3359407 -121.17319418 200.34021983 -118.55536652 200.34550858 C-109.40457345 200.36398414 -100.25383845 200.37218235 -91.10302734 200.37060547 C-82.60231486 200.36940496 -74.10185664 200.39049592 -65.60120845 200.4220928 C-58.27857937 200.44833126 -50.95603295 200.45896959 -43.63335729 200.45769465 C-39.27066542 200.45718721 -34.90819972 200.46274875 -30.54555511 200.48405075 C-26.43809221 200.5035612 -22.33106826 200.50347122 -18.22358894 200.48901749 C-16.72613183 200.48694401 -15.22864629 200.49154191 -13.73123741 200.5037384 C-1.83870731 200.59424031 10.42818768 199.74975352 19.34765625 191 C24.76154922 184.4470137 27.11096289 178.29893364 27.15390015 169.8671875 C27.16250061 168.6084935 27.17110107 167.3497995 27.17996216 166.05296326 C27.18439711 164.66030925 27.18869549 163.26765481 27.19287109 161.875 C27.20077623 160.40621244 27.20904544 158.93742681 27.21765137 157.46864319 C27.24383347 152.64578089 27.25917958 147.8229101 27.2734375 143 C27.27879957 141.33609004 27.28417709 139.67218013 27.28956985 138.00827026 C27.31119689 131.08197277 27.32992985 124.15567756 27.34119225 117.22935486 C27.3574064 107.32466552 27.3905243 97.42037 27.44759309 87.51582909 C27.48640261 80.54067175 27.50583816 73.56561924 27.51111281 66.59035683 C27.51475249 62.43041989 27.52662443 58.27090334 27.55921555 54.11108398 C27.58948932 50.19077545 27.59554024 46.27113739 27.58383179 42.35073662 C27.58361262 40.92057216 27.59178593 39.49037484 27.60948563 38.0603199 C27.72770429 27.94920272 26.78092029 18.32423876 19.75765038 10.50282288 C13.75233767 4.85268162 8.28189833 1.82818983 0 1 C0 0.67 0 0.34 0 0 Z " fill="#B7BFC9" transform="translate(185,0)"/>
<path d="M0 0 C2.7973822 1.59777487 4.46904745 3.48734754 6.140625 6.22265625 C3.97623081 8.79047303 1.8122022 11.17622812 -0.859375 13.22265625 C-4.234375 13.22265625 -4.234375 13.22265625 -6.859375 12.22265625 C-7.189375 11.89265625 -7.519375 11.56265625 -7.859375 11.22265625 C-13.94947377 10.70654619 -16.9800928 11.17642223 -21.859375 15.22265625 C-23.4593871 18.42268044 -23.22167327 21.74200501 -22.859375 25.22265625 C-21.68666257 28.38897981 -20.797168 30.45852862 -18.171875 32.59765625 C-13.49530623 33.86159375 -9.46286294 33.89968449 -5.046875 32.03515625 C-2.50716802 29.93082761 -1.2505633 28.21371109 0.140625 25.22265625 C0.181875 24.25328125 0.223125 23.28390625 0.265625 22.28515625 C1.6733338 17.35817544 5.85499624 15.66416597 10.140625 13.22265625 C12.70226255 18.34593135 11.88541913 25.76784151 10.26953125 31.09375 C7.27583515 37.54246585 3.22664352 42.24752105 -3.2109375 45.359375 C-8.9422768 47.22755492 -16.07768531 47.2574272 -21.734375 45.03515625 C-28.53125468 41.09296604 -33.33109275 36.82883872 -35.859375 29.22265625 C-37.09138989 20.76529088 -36.76999535 13.44318532 -31.78125 6.31640625 C-22.84329543 -3.42087759 -11.93657334 -5.23632699 0 0 Z " fill="#FAFAF8" transform="translate(115.859375,80.77734375)"/>
<path d="M0 0 C9.41723123 0.43598293 17.95270084 1.16389629 27 4 C27.81597656 4.25394531 28.63195312 4.50789063 29.47265625 4.76953125 C41.00270965 8.87535514 51.28969129 16.54316588 60 25 C58.44198995 29.22043229 55.28120091 31.53136168 51.875 34.25 C51.31167969 34.70890625 50.74835938 35.1678125 50.16796875 35.640625 C48.78377401 36.76674953 47.39256589 37.88424385 46 39 C45.01 38.13375 44.02 37.2675 43 36.375 C29.93927232 25.25113374 17.27748746 19.25199184 0 18 C0 12.06 0 6.12 0 0 Z " fill="#2D3C59" transform="translate(104,25)"/>
<path d="M0 0 C10.23 0 20.46 0 31 0 C31 14.19 31 28.38 31 43 C30.67 43 30.34 43 30 43 C29.67 85.24 29.34 127.48 29 171 C28.67 171 28.34 171 28 171 C27.99945523 170.2586166 27.99891047 169.5172332 27.99834919 168.75338364 C27.98335018 150.67333735 27.94077758 132.59354572 27.86790943 114.51363754 C27.83332782 105.77013132 27.8079129 97.02678163 27.80444336 88.28320312 C27.80139393 80.6579642 27.78077255 73.03300455 27.73947543 65.40787339 C27.71823205 61.37425745 27.70549982 57.34103767 27.71384621 53.30736542 C27.72144183 49.50189621 27.70534339 45.69722606 27.67193985 41.89190292 C27.66377225 40.50371784 27.66387814 39.11545228 27.67340279 37.72727585 C27.73499291 27.75439119 26.67254057 18.20745054 19.75794697 10.50127792 C13.75014338 4.85378446 8.28253259 1.82825326 0 1 C0 0.67 0 0.34 0 0 Z " fill="#C8D1D9" transform="translate(185,0)"/>
<path d="M0 0 C-0.42361979 6.60262571 -1.55518889 12.75419889 -3.28125 19.140625 C-4.01997418 22.0794625 -4.53940432 25.00612806 -5 28 C-5.66 28 -6.32 28 -7 28 C-11 22.58823529 -11 22.58823529 -11 20 C-14.26460973 21.80412643 -15.88929795 22.83394693 -18 26 C-18.33 25.01 -18.66 24.02 -19 23 C-19.99 22.67 -20.98 22.34 -22 22 C-22 21.01 -22 20.02 -22 19 C-23.32 19.33 -24.64 19.66 -26 20 C-25.33291016 19.29423828 -25.33291016 19.29423828 -24.65234375 18.57421875 C-24.08644531 17.95160156 -23.52054688 17.32898438 -22.9375 16.6875 C-22.36902344 16.07261719 -21.80054688 15.45773438 -21.21484375 14.82421875 C-20.61349609 13.92123047 -20.61349609 13.92123047 -20 13 C-20.70172062 9.81018585 -20.70172062 9.81018585 -23.5 8.5 C-26 7 -26 7 -27 4 C-23.25097253 3.32778525 -19.50063279 2.66319433 -15.75 2 C-14.15478516 1.71382812 -14.15478516 1.71382812 -12.52734375 1.421875 C-10.99013672 1.15117188 -10.99013672 1.15117188 -9.421875 0.875 C-8.47924805 0.70742188 -7.53662109 0.53984375 -6.56542969 0.3671875 C-4 0 -4 0 0 0 Z " fill="#DEBB71" transform="translate(187,35)"/>
<path d="M0 0 C3 1 3 1 4.625 4.25 C6.63190067 10.00801869 6.68511055 15.95412247 7 22 C1.06 22 -4.88 22 -11 22 C-12.52657005 14.36714976 -12.52657005 14.36714976 -12 10 C-10.05529119 7.756801 -8.49856165 6.24862335 -6.1875 4.5 C-5.64029297 4.04625 -5.09308594 3.5925 -4.52929688 3.125 C-2.91796875 1.84375 -2.91796875 1.84375 0 0 Z " fill="#2B3D5B" transform="translate(139,83)"/>
<path d="M0 0 C7.59 0 15.18 0 23 0 C20 2 20 2 16.6875 3.3125 C9.34009059 6.46801899 6.32496833 10.5739028 3.078125 17.6953125 C2 20 2 20 0 23 C0 15.41 0 7.82 0 0 Z " fill="#C8D1DA" transform="translate(0,0)"/>
<path d="M0 0 C0.66 0.33 1.32 0.66 2 1 C2 1.99 2 2.98 2 4 C2.66 4.33 3.32 4.66 4 5 C3.65120368 8.25543229 2.97866739 9.01873107 0.4375 11.25 C-0.366875 11.8275 -1.17125 12.405 -2 13 C-3.9375 12.1875 -3.9375 12.1875 -6 11 C-6.33 10.01 -6.66 9.02 -7 8 C-6.34 8 -5.68 8 -5 8 C-5.33 7.01 -5.66 6.02 -6 5 C-5.01 4.67 -4.02 4.34 -3 4 C-3 3.34 -3 2.68 -3 2 C-2.01 1.34 -1.02 0.68 0 0 Z " fill="#D3AE63" transform="translate(164,53)"/>
<path d="M0 0 C1.67542976 0.28604898 3.34385343 0.61781233 5 1 C5 1.66 5 2.32 5 3 C2.90639796 4.71911266 0.80892747 6.34102137 -1.375 7.9375 C-6.19406497 11.4399372 -6.19406497 11.4399372 -10 16 C-10.33 14.35 -10.66 12.7 -11 11 C-10.01 11 -9.02 11 -8 11 C-8.33 9.35 -8.66 7.7 -9 6 C-10.98 6 -12.96 6 -15 6 C-12.61426621 4.10786631 -10.92824652 2.97608217 -8 2 C-7.01 3.485 -7.01 3.485 -6 5 C-3.43717258 5.72965366 -3.43717258 5.72965366 -1 6 C-1.020625 5.195625 -1.04125 4.39125 -1.0625 3.5625 C-1 1 -1 1 0 0 Z " fill="#CCB073" transform="translate(136,80)"/>
<path d="M0 0 C0.33 0 0.66 0 1 0 C1.43454965 8.61052077 1.21562979 16.02277368 -4.375 22.9375 C-8.54176425 26.21138619 -11.71014006 27.30227771 -17 27 C-15.04297985 25.6953199 -13.06417543 24.42257633 -11.0625 23.1875 C-5.73468588 19.38191849 -3.15297354 15.15135298 -1 9 C-0.50351331 6.00675815 -0.19903612 3.02672174 0 0 Z " fill="#5F7C91" transform="translate(127,100)"/>
<path d="M0 0 C-1.46342044 3.52942577 -3.34092509 5.44023431 -6.3125 7.8125 C-7.07175781 8.43769531 -7.83101562 9.06289062 -8.61328125 9.70703125 C-11 11 -11 11 -13.66796875 10.88671875 C-16 10 -16 10 -18 7 C-16.3603125 7.0928125 -16.3603125 7.0928125 -14.6875 7.1875 C-11.07873917 7.35597914 -11.07873917 7.35597914 -9.0625 5.5 C-8.711875 5.005 -8.36125 4.51 -8 4 C-7.34 4.33 -6.68 4.66 -6 5 C-5.71125 4.360625 -5.4225 3.72125 -5.125 3.0625 C-3.72314735 0.49243681 -2.91896073 0 0 0 Z " fill="#557786" transform="translate(135,74)"/>
<path d="M0 0 C0.99 0.33 1.98 0.66 3 1 C3 2.65 3 4.3 3 6 C0.37886292 6 -1.50935112 5.68707555 -4 5 C-4.20625 5.61875 -4.4125 6.2375 -4.625 6.875 C-6.54775888 9.84653645 -8.66594527 10.13024659 -12 11 C-9.20482229 8.12011993 -6.34554952 5.32435285 -3.375 2.625 C-2.80523437 2.10164063 -2.23546875 1.57828125 -1.6484375 1.0390625 C-1.10445312 0.69617188 -0.56046875 0.35328125 0 0 Z " fill="#2D3A4D" transform="translate(139,83)"/>
<path d="M0 0 C0.33 0.99 0.66 1.98 1 3 C-0.66666667 4.66666667 -2.33333333 6.33333333 -4 8 C-4.680625 8.78375 -5.36125 9.5675 -6.0625 10.375 C-6.701875 10.91125 -7.34125 11.4475 -8 12 C-10.25 11.75 -10.25 11.75 -12 11 C-10.625 9.5 -10.625 9.5 -9 8 C-8.34 8 -7.68 8 -7 8 C-7 7.34 -7 6.68 -7 6 C-5.01310269 4.64721885 -3.01254782 3.31431695 -1 2 C-0.67 1.34 -0.34 0.68 0 0 Z " fill="#C8B88A" transform="translate(148,63)"/>
<path d="M0 0 C0.66 0.99 1.32 1.98 2 3 C1.67 3.33 1.34 3.66 1 4 C0.66888616 9.71658302 0.78706717 15.39018566 2 21 C-0.94667952 17.97577629 -1.34534737 15.58567794 -1.3125 11.4140625 C-1.291875 10.74117187 -1.27125 10.06828125 -1.25 9.375 C-1.24484375 8.694375 -1.2396875 8.01375 -1.234375 7.3125 C-1.15529337 2.31058673 -1.15529337 2.31058673 0 0 Z " fill="#D2E3EC" transform="translate(81,93)"/>
<path d="M0 0 C0.66 0.33 1.32 0.66 2 1 C-1.3 4.63 -4.6 8.26 -8 12 C-8.33 11.34 -8.66 10.68 -9 10 C-6.43571997 5.82117329 -3.98069267 2.87494471 0 0 Z " fill="#DFEBF1" transform="translate(91,81)"/>
<path d="M0 0 C5.94 0 11.88 0 18 0 C18 0.33 18 0.66 18 1 C16.95199219 1.04898438 15.90398437 1.09796875 14.82421875 1.1484375 C13.44528646 1.22348143 12.0663815 1.29902857 10.6875 1.375 C9.65206055 1.42140625 9.65206055 1.42140625 8.59570312 1.46875 C4.93009211 1.68124919 3.12099208 1.91933861 0 4 C0 2.68 0 1.36 0 0 Z " fill="#486F8C" transform="translate(128,105)"/>
<path d="M0 0 C1.4540625 0.0309375 1.4540625 0.0309375 2.9375 0.0625 C0.9375 3.0625 0.9375 3.0625 -2.0625 4.0625 C-3.45689664 4.12915376 -4.85419875 4.14788199 -6.25 4.125 C-8.1371875 4.0940625 -8.1371875 4.0940625 -10.0625 4.0625 C-10.0625 3.7325 -10.0625 3.4025 -10.0625 3.0625 C-8.6084375 2.5984375 -8.6084375 2.5984375 -7.125 2.125 C-1.0625 0.02168367 -1.0625 0.02168367 0 0 Z " fill="#D8BA79" transform="translate(110.0625,110.9375)"/>
<path d="M0 0 C-1 1.5 -1 1.5 -3 3 C-5.71846235 3.27345479 -8.25677199 3.13491285 -11 3 C-7.63114177 -0.36885823 -4.54278442 -0.10095076 0 0 Z " fill="#A3BDCC" transform="translate(121,144)"/>
<path d="M0 0 C2.31 0.33 4.62 0.66 7 1 C7 1.99 7 2.98 7 4 C5.35 4 3.7 4 2 4 C1.34 2.68 0.68 1.36 0 0 Z " fill="#DDB15F" transform="translate(128,82)"/>
<path d="M0 0 C-1.29299694 2.88437779 -2.65941363 4.87219421 -5 7 C-5.99 6.34 -6.98 5.68 -8 5 C-2.25 0 -2.25 0 0 0 Z " fill="#CDB573" transform="translate(136,76)"/>
<path d="M0 0 C0.99 0.66 1.98 1.32 3 2 C3 2.99 3 3.98 3 5 C2.34 5 1.68 5 1 5 C1 4.34 1 3.68 1 3 C-0.98 3.66 -2.96 4.32 -5 5 C-3.35 3.35 -1.7 1.7 0 0 Z " fill="#313846" transform="translate(168,60)"/>
<path d="M0 0 C0.66 0.33 1.32 0.66 2 1 C0.61918777 5.1424367 -1.59825558 6.32203099 -5 9 C-5.66 8.67 -6.32 8.34 -7 8 C-4.69 5.36 -2.38 2.72 0 0 Z " fill="#D7BD7D" transform="translate(168,46)"/>
<path d="M0 0 C0.33 0.99 0.66 1.98 1 3 C-0.98 4.32 -2.96 5.64 -5 7 C-5.66 6.67 -6.32 6.34 -7 6 C-4.69 4.02 -2.38 2.04 0 0 Z " fill="#3D3F49" transform="translate(134,87)"/>
<path d="M0 0 C2.72426311 2.35277269 3.8141763 4.62496331 5 8 C4.01 8.495 4.01 8.495 3 9 C0 2.25 0 2.25 0 0 Z " fill="#404A60" transform="translate(171,63)"/>
</svg>
