<svg width="512" height="512" viewBox="0 0 512 512" fill="none" xmlns="http://www.w3.org/2000/svg">
<g clip-path="url(#clip0_1680_126)">
<path d="M448 128H106.667C88.3413 128 70.9973 120.064 58.9867 106.688C70.72 93.5894 87.7653 85.3334 106.667 85.3334H490.667C518.571 85.2054 518.549 42.7734 490.667 42.6667H106.667C47.7653 42.6667 0 90.4321 0 149.333V362.667C0 421.568 47.7653 469.333 106.667 469.333H448C483.349 469.333 512 440.683 512 405.333V192C512 156.651 483.349 128 448 128ZM426.667 320C398.763 319.872 398.763 277.461 426.667 277.333C454.571 277.461 454.571 319.872 426.667 320Z" fill="#6F39C5"/>
</g>
<defs>
<clipPath id="clip0_1680_126">
<rect width="512" height="512" fill="white"/>
</clipPath>
</defs>
</svg>
