<svg xmlns="http://www.w3.org/2000/svg" version="1.1" viewBox="-5.0 -10.0 110.0 135.0">
 <path d="m77.129 12.105-2.6289-7.1055-2.6289 7.1055c-1.8477 4.9883-5.7773 8.918-10.766 10.766l-7.1055 2.6289 7.1055 2.6289c4.9883 1.8477 8.918 5.7773 10.766 10.766l2.6289 7.1055 2.6289-7.1055c1.8477-4.9883 5.7773-8.918 10.766-10.766l7.1055-2.6289-7.1055-2.6289c-4.9883-1.8477-8.918-5.7773-10.766-10.766z"/>
 <path d="m43.926 37.957-4.4258-11.957-4.4258 11.957c-3.1055 8.3945-9.7227 15.012-18.117 18.117l-11.957 4.4258 11.957 4.4258c8.3945 3.1055 15.012 9.7227 18.117 18.117l4.4258 11.957 4.4258-11.957c3.1055-8.3945 9.7227-15.012 18.117-18.117l11.957-4.4258-11.957-4.4258c-8.3945-3.1055-15.012-9.7227-18.117-18.117z"/>
<text x="0.0" y="117.5" font-size="5.0" font-weight="bold" font-family="Arbeit Regular, Helvetica, Arial-Unicode, Arial, Sans-serif" fill="#000000">Created by Styfico</text><text x="0.0" y="122.5" font-size="5.0" font-weight="bold" font-family="Arbeit Regular, Helvetica, Arial-Unicode, Arial, Sans-serif" fill="#000000">from Noun Project</text></svg>