<?xml version="1.0" encoding="UTF-8"?>
<svg version="1.1" xmlns="http://www.w3.org/2000/svg" width="211" height="202">
<path d="M0 0 C2.87902244 2.4583057 3.90375395 4.84353975 5.1875 8.375 C5.81978516 10.08429688 5.81978516 10.08429688 6.46484375 11.828125 C6.70187012 12.47587891 6.93889648 13.12363281 7.18310547 13.79101562 C8.83229926 18.25064068 10.54964271 22.68469266 12.25 27.125 C12.94361727 28.93975702 13.63638092 30.75484063 14.328125 32.5703125 C14.6262207 33.35164551 14.92431641 34.13297852 15.23144531 34.93798828 C15.8556798 36.61279275 16.43478865 38.30436595 17 40 C17.25528048 36.41802596 17.47465688 32.83472621 17.6875 29.25 C17.79674805 27.72632813 17.79674805 27.72632813 17.90820312 26.171875 C17.96298828 25.1921875 18.01777344 24.2125 18.07421875 23.203125 C18.13182373 22.30239258 18.18942871 21.40166016 18.2487793 20.47363281 C17.94943764 17.49725434 16.965641 16.20151792 15 14 C16.98 12.02 18.96 10.04 21 8 C24.81684226 9.55500981 27.19195732 12.03595495 30 15 C29.24976562 15.54527344 29.24976562 15.54527344 28.484375 16.1015625 C26.29153421 18.90609046 26.88406872 20.89865283 27.25 24.375 C27.35828125 25.49648437 27.4665625 26.61796875 27.578125 27.7734375 C27.94178498 30.55476289 28.43431764 33.25498261 29 36 C31.19870778 30.64476862 33.28593399 25.26590656 35.21875 19.80859375 C35.59386719 18.76251953 35.96898438 17.71644531 36.35546875 16.63867188 C37.12964476 14.47335706 37.89236777 12.3039187 38.64453125 10.13085938 C39.01964844 9.09638672 39.39476563 8.06191406 39.78125 6.99609375 C40.2772168 5.59121704 40.2772168 5.59121704 40.78320312 4.15795898 C42 2 42 2 43.88964844 1.0769043 C46.47308841 0.98275997 47.72023938 1.53948901 49.984375 2.7734375 C50.7472583 3.18166748 51.5101416 3.58989746 52.29614258 4.01049805 C53.10591553 4.46078369 53.91568848 4.91106934 54.75 5.375 C55.58748779 5.83108643 56.42497559 6.28717285 57.2878418 6.75708008 C59.01752766 7.70177856 60.7443251 8.6517839 62.46826172 9.60693359 C64.83137761 10.90721703 67.2097577 12.17175742 69.59765625 13.42578125 C78.02871155 17.90690294 84.99421731 21.79083603 88.875 30.875 C90 36 90 36 90 53 C45.45 53 0.9 53 -45 53 C-45 28.82417582 -45 28.82417582 -40 23 C-33.9913532 17.04928781 -26.93834951 13.57945086 -19.4375 9.8125 C-18.21895586 9.19162816 -17.00085338 8.56988872 -15.78320312 7.94726562 C-10.53496156 5.2724302 -5.26974967 2.6321633 0 0 Z " fill="#2D3D5A" transform="translate(83,111)"/>
<path d="M0 0 C2.87902244 2.4583057 3.90375395 4.84353975 5.1875 8.375 C5.61289063 9.52355469 6.03828125 10.67210938 6.4765625 11.85546875 C6.83282715 12.8287915 6.83282715 12.8287915 7.19628906 13.82177734 C8.78350932 18.12347211 10.42871866 22.40332855 12.0625 26.6875 C12.39080811 27.55358887 12.71911621 28.41967773 13.05737305 29.31201172 C13.54137573 30.5864917 13.54137573 30.5864917 14.03515625 31.88671875 C14.35500488 32.72895996 14.67485352 33.57120117 15.00439453 34.43896484 C16.32970182 37.84810498 17.73961644 41.22100317 19.16577148 44.58911133 C20 47 20 47 21 53 C-0.78 53 -22.56 53 -45 53 C-45 28.82417582 -45 28.82417582 -40 23 C-33.9913532 17.04928781 -26.93834951 13.57945086 -19.4375 9.8125 C-18.21895586 9.19162816 -17.00085338 8.56988872 -15.78320312 7.94726562 C-10.53496156 5.2724302 -5.26974967 2.6321633 0 0 Z " fill="#497694" transform="translate(83,111)"/>
<path d="M0 0 C6.05158743 4.14623614 10.38021146 10.18556096 11.97265625 17.3515625 C12.16015625 20.8515625 12.16015625 20.8515625 11.97265625 23.3515625 C12.96265625 23.3515625 13.95265625 23.3515625 14.97265625 23.3515625 C15.02661103 24.97620092 15.0654282 26.60134791 15.09765625 28.2265625 C15.12085938 29.13148437 15.1440625 30.03640625 15.16796875 30.96875 C14.97265625 33.3515625 14.97265625 33.3515625 12.97265625 35.3515625 C11.65265625 35.3515625 10.33265625 35.3515625 8.97265625 35.3515625 C8.93398437 36.29515625 8.93398437 36.29515625 8.89453125 37.2578125 C8.4449059 44.0430678 7.47399776 50.14532267 2.2578125 54.921875 C-4.14708551 59.66122871 -10.1806854 60.09043882 -18.02734375 59.3515625 C-23.70219975 56.6689033 -27.76905533 52.24562586 -30.27734375 46.4765625 C-31.16875815 42.76233583 -31.63432016 39.15079056 -32.02734375 35.3515625 C-33.67734375 34.6915625 -35.32734375 34.0315625 -37.02734375 33.3515625 C-37.02734375 30.0515625 -37.02734375 26.7515625 -37.02734375 23.3515625 C-35.70734375 23.3515625 -34.38734375 23.3515625 -33.02734375 23.3515625 C-33.15109375 22.3615625 -33.27484375 21.3715625 -33.40234375 20.3515625 C-33.38460324 15.98739819 -31.57348056 13.36372292 -28.84375 10.0703125 C-25.95215926 7.33418363 -22.77462523 6.35043398 -19.02734375 5.3515625 C-16.7757381 4.66933947 -14.5258333 3.98148649 -12.27734375 3.2890625 C-11.189375 2.96808594 -10.10140625 2.64710937 -8.98046875 2.31640625 C-6.08243383 1.48385015 -6.08243383 1.48385015 -3.88671875 0.10546875 C-2.02734375 -0.6484375 -2.02734375 -0.6484375 0 0 Z " fill="#FAFBFB" transform="translate(116.02734375,40.6484375)"/>
<path d="M0 0 C5.09141537 3.2498396 8.81829554 7.88016939 11.203125 13.40625 C11.52197266 15.74951172 11.52197266 15.74951172 11.6171875 18.3359375 C11.65634277 19.29000488 11.69549805 20.24407227 11.73583984 21.22705078 C11.76629395 22.23493652 11.79674805 23.24282227 11.828125 24.28125 C11.86244629 25.3110498 11.89676758 26.34084961 11.93212891 27.40185547 C11.9975991 29.45852246 12.05871802 31.51533311 12.11523438 33.57226562 C12.19066811 36.00458438 12.30340648 38.42978232 12.4375 40.859375 C12.76311314 49.361496 12.76311314 49.361496 11.15625 52.359375 C9.828125 53.78125 9.828125 53.78125 7.203125 55.40625 C6.543125 55.40625 5.883125 55.40625 5.203125 55.40625 C5.16445312 56.38464844 5.16445312 56.38464844 5.125 57.3828125 C4.62217893 65.13082801 2.55782563 69.40667383 -3.234375 74.65625 C-9.0090482 79.64042269 -14.86465162 79.96408597 -22.27734375 79.84765625 C-28.45163434 79.07330016 -32.31824734 76.19012737 -36.3828125 71.625 C-40.31931618 66.43700672 -42.10361963 62.00125962 -41.796875 55.40625 C-42.415625 55.15875 -43.034375 54.91125 -43.671875 54.65625 C-46.25558952 53.13641793 -46.7165622 52.17185078 -47.796875 49.40625 C-48.14009574 45.846062 -47.96072605 42.29200504 -47.85449219 38.71923828 C-47.78621237 35.97820852 -47.76735318 33.23785151 -47.7421875 30.49609375 C-47.69986392 28.36193966 -47.6555776 26.22782364 -47.609375 24.09375 C-47.60381592 23.06797852 -47.59825684 22.04220703 -47.5925293 20.98535156 C-47.39441005 14.26785394 -46.25361777 9.55969864 -41.796875 4.40625 C-31.2091325 -4.99042581 -12.7148082 -5.5977143 0 0 Z M-12.546875 17.15625 C-17.72004764 19.54128414 -23.04627653 20.90832327 -28.5625 22.28125 C-32.98222825 23.81854678 -35.74243861 26.06093461 -38.609375 29.71875 C-40.09718004 33.08588772 -40.01106113 35.76508583 -39.796875 39.40625 C-41.116875 39.40625 -42.436875 39.40625 -43.796875 39.40625 C-43.796875 42.70625 -43.796875 46.00625 -43.796875 49.40625 C-42.99378906 49.61765625 -42.19070312 49.8290625 -41.36328125 50.046875 C-40.09291016 50.71976563 -40.09291016 50.71976563 -38.796875 51.40625 C-38.01171875 54.015625 -38.01171875 54.015625 -37.734375 57.15625 C-36.85396599 63.91682191 -34.82932799 67.76572962 -29.671875 72.21875 C-24.28776949 76.31535202 -19.41504187 75.98751936 -12.796875 75.40625 C-7.40444952 73.9459847 -3.76040638 71.09106839 -0.76171875 66.40625 C1.56504507 61.58316063 2.203125 56.71066987 2.203125 51.40625 C3.0075 51.261875 3.811875 51.1175 4.640625 50.96875 C7.12416206 50.66489751 7.12416206 50.66489751 8.203125 49.40625 C8.27518011 47.72016034 8.28698568 46.03124341 8.265625 44.34375 C8.25660156 43.42464844 8.24757812 42.50554687 8.23828125 41.55859375 C8.22667969 40.84832031 8.21507812 40.13804688 8.203125 39.40625 C7.213125 39.40625 6.223125 39.40625 5.203125 39.40625 C5.285625 38.6225 5.368125 37.83875 5.453125 37.03125 C4.8615536 28.45346475 1.1209517 22.6410053 -4.9921875 16.8046875 C-7.95153649 14.51151231 -9.44851236 15.64201262 -12.546875 17.15625 Z " fill="#2E3C58" transform="translate(122.796875,24.59375)"/>
</svg>
