<?xml version="1.0" encoding="UTF-8"?>
<svg version="1.1" xmlns="http://www.w3.org/2000/svg" width="211" height="202">
<path d="M0 0 C69.63 0 139.26 0 211 0 C211 66.66 211 133.32 211 202 C141.37 202 71.74 202 0 202 C0 135.34 0 68.68 0 0 Z " fill="#FDFDFD" transform="translate(0,0)"/>
<path d="M0 0 C2.87902244 2.4583057 3.90375395 4.84353975 5.1875 8.375 C5.81978516 10.08429688 5.81978516 10.08429688 6.46484375 11.828125 C6.70187012 12.47587891 6.93889648 13.12363281 7.18310547 13.79101562 C8.83229926 18.25064068 10.54964271 22.68469266 12.25 27.125 C12.94361727 28.93975702 13.63638092 30.75484063 14.328125 32.5703125 C14.6262207 33.35164551 14.92431641 34.13297852 15.23144531 34.93798828 C15.8556798 36.61279275 16.43478865 38.30436595 17 40 C17.25528048 36.41802596 17.47465688 32.83472621 17.6875 29.25 C17.79674805 27.72632813 17.79674805 27.72632813 17.90820312 26.171875 C17.96298828 25.1921875 18.01777344 24.2125 18.07421875 23.203125 C18.13182373 22.30239258 18.18942871 21.40166016 18.2487793 20.47363281 C17.94943764 17.49725434 16.965641 16.20151792 15 14 C16.98 12.02 18.96 10.04 21 8 C24.81684226 9.55500981 27.19195732 12.03595495 30 15 C29.24976562 15.54527344 29.24976562 15.54527344 28.484375 16.1015625 C26.29153421 18.90609046 26.88406872 20.89865283 27.25 24.375 C27.35828125 25.49648437 27.4665625 26.61796875 27.578125 27.7734375 C27.94178498 30.55476289 28.43431764 33.25498261 29 36 C31.19870778 30.64476862 33.28593399 25.26590656 35.21875 19.80859375 C35.59386719 18.76251953 35.96898438 17.71644531 36.35546875 16.63867188 C37.12964476 14.47335706 37.89236777 12.3039187 38.64453125 10.13085938 C39.01964844 9.09638672 39.39476563 8.06191406 39.78125 6.99609375 C40.2772168 5.59121704 40.2772168 5.59121704 40.78320312 4.15795898 C42 2 42 2 43.88964844 1.0769043 C46.47308841 0.98275997 47.72023938 1.53948901 49.984375 2.7734375 C50.7472583 3.18166748 51.5101416 3.58989746 52.29614258 4.01049805 C53.10591553 4.46078369 53.91568848 4.91106934 54.75 5.375 C55.58748779 5.83108643 56.42497559 6.28717285 57.2878418 6.75708008 C59.01752766 7.70177856 60.7443251 8.6517839 62.46826172 9.60693359 C64.83137761 10.90721703 67.2097577 12.17175742 69.59765625 13.42578125 C78.02871155 17.90690294 84.99421731 21.79083603 88.875 30.875 C90 36 90 36 90 53 C45.45 53 0.9 53 -45 53 C-45 28.82417582 -45 28.82417582 -40 23 C-33.9913532 17.04928781 -26.93834951 13.57945086 -19.4375 9.8125 C-18.21895586 9.19162816 -17.00085338 8.56988872 -15.78320312 7.94726562 C-10.53496156 5.2724302 -5.26974967 2.6321633 0 0 Z " fill="#2D3D5A" transform="translate(83,111)"/>
<path d="M0 0 C2.87902244 2.4583057 3.90375395 4.84353975 5.1875 8.375 C5.61289063 9.52355469 6.03828125 10.67210938 6.4765625 11.85546875 C6.83282715 12.8287915 6.83282715 12.8287915 7.19628906 13.82177734 C8.78350932 18.12347211 10.42871866 22.40332855 12.0625 26.6875 C12.39080811 27.55358887 12.71911621 28.41967773 13.05737305 29.31201172 C13.54137573 30.5864917 13.54137573 30.5864917 14.03515625 31.88671875 C14.35500488 32.72895996 14.67485352 33.57120117 15.00439453 34.43896484 C16.32970182 37.84810498 17.73961644 41.22100317 19.16577148 44.58911133 C20 47 20 47 21 53 C-0.78 53 -22.56 53 -45 53 C-45 28.82417582 -45 28.82417582 -40 23 C-33.9913532 17.04928781 -26.93834951 13.57945086 -19.4375 9.8125 C-18.21895586 9.19162816 -17.00085338 8.56988872 -15.78320312 7.94726562 C-10.53496156 5.2724302 -5.26974967 2.6321633 0 0 Z " fill="#497694" transform="translate(83,111)"/>
<path d="M0 0 C6.05158743 4.14623614 10.38021146 10.18556096 11.97265625 17.3515625 C12.16015625 20.8515625 12.16015625 20.8515625 11.97265625 23.3515625 C12.96265625 23.3515625 13.95265625 23.3515625 14.97265625 23.3515625 C15.02661103 24.97620092 15.0654282 26.60134791 15.09765625 28.2265625 C15.12085938 29.13148437 15.1440625 30.03640625 15.16796875 30.96875 C14.97265625 33.3515625 14.97265625 33.3515625 12.97265625 35.3515625 C11.65265625 35.3515625 10.33265625 35.3515625 8.97265625 35.3515625 C8.93398437 36.29515625 8.93398437 36.29515625 8.89453125 37.2578125 C8.4449059 44.0430678 7.47399776 50.14532267 2.2578125 54.921875 C-4.14708551 59.66122871 -10.1806854 60.09043882 -18.02734375 59.3515625 C-23.70219975 56.6689033 -27.76905533 52.24562586 -30.27734375 46.4765625 C-31.16875815 42.76233583 -31.63432016 39.15079056 -32.02734375 35.3515625 C-33.67734375 34.6915625 -35.32734375 34.0315625 -37.02734375 33.3515625 C-37.02734375 30.0515625 -37.02734375 26.7515625 -37.02734375 23.3515625 C-35.70734375 23.3515625 -34.38734375 23.3515625 -33.02734375 23.3515625 C-33.15109375 22.3615625 -33.27484375 21.3715625 -33.40234375 20.3515625 C-33.38460324 15.98739819 -31.57348056 13.36372292 -28.84375 10.0703125 C-25.95215926 7.33418363 -22.77462523 6.35043398 -19.02734375 5.3515625 C-16.7757381 4.66933947 -14.5258333 3.98148649 -12.27734375 3.2890625 C-11.189375 2.96808594 -10.10140625 2.64710937 -8.98046875 2.31640625 C-6.08243383 1.48385015 -6.08243383 1.48385015 -3.88671875 0.10546875 C-2.02734375 -0.6484375 -2.02734375 -0.6484375 0 0 Z " fill="#FAFBFB" transform="translate(116.02734375,40.6484375)"/>
<path d="M0 0 C5.09141537 3.2498396 8.81829554 7.88016939 11.203125 13.40625 C11.52197266 15.74951172 11.52197266 15.74951172 11.6171875 18.3359375 C11.65634277 19.29000488 11.69549805 20.24407227 11.73583984 21.22705078 C11.76629395 22.23493652 11.79674805 23.24282227 11.828125 24.28125 C11.86244629 25.3110498 11.89676758 26.34084961 11.93212891 27.40185547 C11.9975991 29.45852246 12.05871802 31.51533311 12.11523438 33.57226562 C12.19066811 36.00458438 12.30340648 38.42978232 12.4375 40.859375 C12.76311314 49.361496 12.76311314 49.361496 11.15625 52.359375 C9.828125 53.78125 9.828125 53.78125 7.203125 55.40625 C6.543125 55.40625 5.883125 55.40625 5.203125 55.40625 C5.16445312 56.38464844 5.16445312 56.38464844 5.125 57.3828125 C4.62217893 65.13082801 2.55782563 69.40667383 -3.234375 74.65625 C-9.0090482 79.64042269 -14.86465162 79.96408597 -22.27734375 79.84765625 C-28.45163434 79.07330016 -32.31824734 76.19012737 -36.3828125 71.625 C-40.31931618 66.43700672 -42.10361963 62.00125962 -41.796875 55.40625 C-42.415625 55.15875 -43.034375 54.91125 -43.671875 54.65625 C-46.25558952 53.13641793 -46.7165622 52.17185078 -47.796875 49.40625 C-48.14009574 45.846062 -47.96072605 42.29200504 -47.85449219 38.71923828 C-47.78621237 35.97820852 -47.76735318 33.23785151 -47.7421875 30.49609375 C-47.69986392 28.36193966 -47.6555776 26.22782364 -47.609375 24.09375 C-47.60381592 23.06797852 -47.59825684 22.04220703 -47.5925293 20.98535156 C-47.39441005 14.26785394 -46.25361777 9.55969864 -41.796875 4.40625 C-31.2091325 -4.99042581 -12.7148082 -5.5977143 0 0 Z M-12.546875 17.15625 C-17.72004764 19.54128414 -23.04627653 20.90832327 -28.5625 22.28125 C-32.98222825 23.81854678 -35.74243861 26.06093461 -38.609375 29.71875 C-40.09718004 33.08588772 -40.01106113 35.76508583 -39.796875 39.40625 C-41.116875 39.40625 -42.436875 39.40625 -43.796875 39.40625 C-43.796875 42.70625 -43.796875 46.00625 -43.796875 49.40625 C-42.99378906 49.61765625 -42.19070312 49.8290625 -41.36328125 50.046875 C-40.09291016 50.71976563 -40.09291016 50.71976563 -38.796875 51.40625 C-38.01171875 54.015625 -38.01171875 54.015625 -37.734375 57.15625 C-36.85396599 63.91682191 -34.82932799 67.76572962 -29.671875 72.21875 C-24.28776949 76.31535202 -19.41504187 75.98751936 -12.796875 75.40625 C-7.40444952 73.9459847 -3.76040638 71.09106839 -0.76171875 66.40625 C1.56504507 61.58316063 2.203125 56.71066987 2.203125 51.40625 C3.0075 51.261875 3.811875 51.1175 4.640625 50.96875 C7.12416206 50.66489751 7.12416206 50.66489751 8.203125 49.40625 C8.27518011 47.72016034 8.28698568 46.03124341 8.265625 44.34375 C8.25660156 43.42464844 8.24757812 42.50554687 8.23828125 41.55859375 C8.22667969 40.84832031 8.21507812 40.13804688 8.203125 39.40625 C7.213125 39.40625 6.223125 39.40625 5.203125 39.40625 C5.285625 38.6225 5.368125 37.83875 5.453125 37.03125 C4.8615536 28.45346475 1.1209517 22.6410053 -4.9921875 16.8046875 C-7.95153649 14.51151231 -9.44851236 15.64201262 -12.546875 17.15625 Z " fill="#2E3C58" transform="translate(122.796875,24.59375)"/>
<path d="M0 0 C9.57 0 19.14 0 29 0 C29 66.66 29 133.32 29 202 C20.42 202 11.84 202 3 202 C4.99146684 200.00853316 6.21899622 199.39651519 8.75 198.3125 C16.20058017 194.6277022 19.40185356 188.93174256 22.23828125 181.33203125 C23.63390005 177.05929062 24.12802144 173.44657771 24.14044189 168.92292786 C24.14615204 167.67672668 24.15186218 166.43052551 24.15774536 165.14656067 C24.15899064 163.76803599 24.16011576 162.3895112 24.16113281 161.01098633 C24.16576297 159.55703608 24.1707879 158.10308704 24.17617798 156.6491394 C24.18928688 152.70055125 24.19574425 148.75198009 24.20018864 144.80337358 C24.20312244 142.33418631 24.20722788 139.86500365 24.21169281 137.39581871 C24.22536518 129.66388719 24.23503251 121.93196624 24.2388947 114.20002347 C24.24337177 105.28693688 24.26090439 96.37400392 24.2898953 87.46096402 C24.31154657 80.56398133 24.32160086 73.66704174 24.32293582 66.77002543 C24.32398159 62.65445749 24.32984044 58.53903401 24.34775543 54.42350197 C24.36429534 50.54846177 24.36636312 46.67367371 24.35761642 42.79861069 C24.35684914 41.38171778 24.36114776 39.96481099 24.37107468 38.54795265 C24.43389624 29.01727231 23.90618219 20.66727104 18.375 12.625 C16.80271499 10.30945298 15.90127055 8.70381166 15 6 C13.09821215 5.39938767 13.09821215 5.39938767 11 5 C10.01 4.34 9.02 3.68 8 3 C5.95415921 2.33841957 5.95415921 2.33841957 3.8125 1.875 C2.554375 1.58625 1.29625 1.2975 0 1 C0 0.67 0 0.34 0 0 Z " fill="#BAC3CC" transform="translate(182,0)"/>
<path d="M0 0 C7.92 0 15.84 0 24 0 C22.02 0.99 22.02 0.99 20 2 C12.05337516 6.73388048 5.99186804 12.02439588 3 21 C2.89768669 23.12071692 2.8562626 25.24453184 2.84609985 27.36769104 C2.8417176 28.01656703 2.83733535 28.66544303 2.8328203 29.33398193 C2.81944558 31.5124525 2.81325636 33.69088261 2.80712891 35.86938477 C2.79922667 37.42993858 2.79095764 38.99049057 2.78234863 40.55104065 C2.75613492 45.68114478 2.74081816 50.81125703 2.7265625 55.94140625 C2.72120189 57.70906008 2.71582438 59.47671387 2.71043015 61.2443676 C2.68879927 68.60040486 2.67006482 75.95643994 2.65880775 83.31250095 C2.64258439 93.84386622 2.60944834 104.37486161 2.55240691 114.90608746 C2.51364546 122.31600937 2.49416753 129.72583263 2.48888719 137.13585323 C2.48524122 141.55841956 2.47330123 145.98059132 2.44078445 150.40304756 C2.41059558 154.56873744 2.40443014 158.73379629 2.41616821 162.89957237 C2.41638807 164.42249027 2.40815602 165.94543836 2.39051437 167.46825409 C2.27604907 177.92422468 3.51733369 185.71275255 10.4375 193.875 C14.40160855 197.16230953 18.39498952 199.69749476 23 202 C15.41 202 7.82 202 0 202 C0 135.34 0 68.68 0 0 Z " fill="#C6CFD7" transform="translate(0,0)"/>
<path d="M0 0 C0.33 0 0.66 0 1 0 C1.00054477 0.77930311 1.00108953 1.55860622 1.00165081 2.36152458 C1.01663804 21.35049016 1.05916332 40.33921292 1.13209057 59.3280468 C1.16669867 68.51104242 1.1920906 77.69388858 1.19555664 86.87695312 C1.19860236 94.88378283 1.21917434 102.89034607 1.26052457 110.89707291 C1.2818013 115.13406452 1.29448276 119.37067781 1.28615379 123.60772324 C1.27857964 127.60195103 1.29457141 131.5954144 1.32806015 135.58950233 C1.33625319 137.04948106 1.33609111 138.50953638 1.32659721 139.96950722 C1.26577246 150.35785088 2.62589786 157.84080261 9.4375 165.875 C13.40160855 169.16230953 17.39498952 171.69749476 22 174 C14.41 174 6.82 174 -1 174 C-0.67 116.58 -0.34 59.16 0 0 Z " fill="#D3DAE0" transform="translate(1,28)"/>
<path d="M0 0 C1.98 0.66 3.96 1.32 6 2 C6.14695312 3.19496094 6.14695312 3.19496094 6.296875 4.4140625 C7.37890259 12.08153385 8.64156493 17.04137863 14.625 22.3125 C18.13310248 24.80509913 20.35738098 25.21513566 24.625 25.5625 C25.62789062 25.64628906 26.63078125 25.73007813 27.6640625 25.81640625 C28.43492188 25.87699219 29.20578125 25.93757813 30 26 C30 26.33 30 26.66 30 27 C18.04153394 29.78806933 18.04153394 29.78806933 13.4296875 28.0078125 C7.96916978 24.00066451 3.95296643 18.50988811 2 12 C1.875 8.6875 1.875 8.6875 2 6 C0.68 5.34 -0.64 4.68 -2 4 C-1.34 3.67 -0.68 3.34 0 3 C0 2.01 0 1.02 0 0 Z " fill="#3A4559" transform="translate(79,74)"/>
<path d="M0 0 C1.98 0.66 3.96 1.32 6 2 C6.33 5.96 6.66 9.92 7 14 C6.34 13.34 5.68 12.68 5 12 C4.34 12.66 3.68 13.32 3 14 C1.64560332 11.29120665 1.93498549 8.99066732 2 6 C0.68 5.34 -0.64 4.68 -2 4 C-1.34 3.67 -0.68 3.34 0 3 C0 2.01 0 1.02 0 0 Z " fill="#566271" transform="translate(79,74)"/>
<path d="M0 0 C1.9375 0.375 1.9375 0.375 4 1 C4.33 1.66 4.66 2.32 5 3 C4.4225 3.515625 3.845 4.03125 3.25 4.5625 C-0.14265055 8.23787143 -2.40962756 12.22888269 -4 17 C-4.66 17 -5.32 17 -6 17 C-5.49487476 10.77012202 -2.67395877 5.54525767 0 0 Z " fill="#424C5D" transform="translate(126,112)"/>
<path d="M0 0 C-0.33 0.99 -0.66 1.98 -1 3 C-5.62 3 -10.24 3 -15 3 C-15 2.34 -15 1.68 -15 1 C-13.0641649 0.63684334 -11.12624752 0.28477269 -9.1875 -0.0625 C-8.10855469 -0.25972656 -7.02960938 -0.45695312 -5.91796875 -0.66015625 C-3 -1 -3 -1 0 0 Z " fill="#2D3B53" transform="translate(112,101)"/>
<path d="M0 0 C0 0.66 0 1.32 0 2 C-1.5988191 3.23030726 -3.25530585 4.38640163 -4.9375 5.5 C-8.56770686 7.70978178 -8.56770686 7.70978178 -11 11 C-11.66 11 -12.32 11 -13 11 C-11.31190544 4.62275387 -6.57732594 0 0 0 Z " fill="#577A90" transform="translate(54,128)"/>
<path d="M0 0 C0.33 0 0.66 0 1 0 C1 4.29 1 8.58 1 13 C-1 12 -1 12 -1.8515625 9.71484375 C-2.10679688 8.79832031 -2.36203125 7.88179687 -2.625 6.9375 C-2.88539062 6.01839844 -3.14578125 5.09929687 -3.4140625 4.15234375 C-3.60742188 3.44207031 -3.80078125 2.73179687 -4 2 C-3.01 2 -2.02 2 -1 2 C-0.67 1.34 -0.34 0.68 0 0 Z " fill="#D7DEE2" transform="translate(100,139)"/>
<path d="M0 0 C0.99 0 1.98 0 3 0 C3 4.29 3 8.58 3 13 C2.01 12.67 1.02 12.34 0 12 C0 8.04 0 4.08 0 0 Z " fill="#26364C" transform="translate(76,64)"/>
<path d="M0 0 C3.81684226 1.55500981 6.19195732 4.03595495 9 7 C7.68 7.33 6.36 7.66 5 8 C5 7.34 5 6.68 5 6 C3.68 5.34 2.36 4.68 1 4 C1 3.34 1 2.68 1 2 C0.34 1.67 -0.32 1.34 -1 1 C-0.67 0.67 -0.34 0.34 0 0 Z " fill="#343F52" transform="translate(104,119)"/>
<path d="M0 0 C0.33 0 0.66 0 1 0 C1.16918268 1.58306647 1.33523936 3.16646719 1.5 4.75 C1.5928125 5.63171875 1.685625 6.5134375 1.78125 7.421875 C2 10 2 10 2 14 C1.01 14.33 0.02 14.66 -1 15 C-1.5625 13.0625 -1.5625 13.0625 -2 11 C-1.67 10.67 -1.34 10.34 -1 10 C-0.76712992 8.31816052 -0.58735834 6.6287584 -0.4375 4.9375 C-0.35371094 4.01839844 -0.26992187 3.09929687 -0.18359375 2.15234375 C-0.12300781 1.44207031 -0.06242188 0.73179688 0 0 Z " fill="#3B4A5C" transform="translate(131,64)"/>
<path d="M0 0 C0.66 1.32 1.32 2.64 2 4 C2.66 4 3.32 4 4 4 C3.67 5.98 3.34 7.96 3 10 C1.68 9.67 0.36 9.34 -1 9 C-0.67 6.03 -0.34 3.06 0 0 Z " fill="#445369" transform="translate(124,80)"/>
<path d="M0 0 C0.66 0.66 1.32 1.32 2 2 C1.875 4.4375 1.875 4.4375 1 7 C-0.32 7.99 -1.64 8.98 -3 10 C-2.01 6.7 -1.02 3.4 0 0 Z " fill="#424E62" transform="translate(117,134)"/>
<path d="M0 0 C2.89932357 2.39509338 3.50168276 4.31245243 4 8 C3.01 8 2.02 8 1 8 C1 6.02 1 4.04 1 2 C0.01 1.67 -0.98 1.34 -2 1 C-1.34 0.67 -0.68 0.34 0 0 Z " fill="#6B899A" transform="translate(83,111)"/>
<path d="M0 0 C0.99 0 1.98 0 3 0 C3 2.64 3 5.28 3 8 C2.01 8.495 2.01 8.495 1 9 C0.45627049 5.94152152 0 3.11227195 0 0 Z " fill="#2C364A" transform="translate(81,76)"/>
<path d="M0 0 C0.66 0.99 1.32 1.98 2 3 C1.34 4.32 0.68 5.64 0 7 C-0.66 7 -1.32 7 -2 7 C-1.125 1.125 -1.125 1.125 0 0 Z " fill="#38445C" transform="translate(81,29)"/>
</svg>
