<svg width="512" height="512" viewBox="0 0 512 512" fill="none" xmlns="http://www.w3.org/2000/svg">
<g clip-path="url(#clip0_2034_122)">
<mask id="mask0_2034_122" style="mask-type:luminance" maskUnits="userSpaceOnUse" x="0" y="0" width="512" height="512">
<path d="M512 0H0V512H512V0Z" fill="white"/>
</mask>
<g mask="url(#mask0_2034_122)">
<path d="M425.473 56.3626L256.001 0.191895L86.5293 56.3626C73.7607 60.5954 62.6505 68.744 54.7768 79.6508C46.9031 90.5576 42.6662 103.668 42.668 117.12V256C42.668 416.512 238.935 505.152 247.34 508.843L254.892 512.192L262.743 509.589C271.191 506.773 469.335 438.976 469.335 256V117.12C469.336 103.668 465.1 90.5576 457.226 79.6508C449.352 68.744 438.242 60.5954 425.473 56.3626ZM265.473 298.432C261.744 302.186 257.306 305.163 252.417 307.188C247.528 309.213 242.285 310.247 236.993 310.229H236.289C230.89 310.147 225.563 308.97 220.631 306.77C215.699 304.57 211.265 301.392 207.596 297.429L158.401 246.229L189.185 216.747L237.057 266.667L347.585 156.139L377.751 186.304L265.473 298.432Z" fill="#4A9BE6"/>
</g>
</g>
<defs>
<clipPath id="clip0_2034_122">
<rect width="512" height="512" fill="white"/>
</clipPath>
</defs>
</svg>
